<svg width="18" height="18" viewBox="0 0 18 18" fill="none" xmlns="http://www.w3.org/2000/svg">
<path d="M1.91592 7.58327H12.6684L7.99342 2.92244C7.72666 2.65567 7.57679 2.29386 7.57679 1.9166C7.57679 1.53934 7.72666 1.17753 7.99342 0.910771C8.26018 0.644007 8.62199 0.494141 8.99925 0.494141C9.37651 0.494141 9.73832 0.644007 10.0051 0.910771L17.0884 7.9941C17.2174 8.12883 17.3185 8.28771 17.3859 8.4616C17.5276 8.80651 17.5276 9.19337 17.3859 9.53827C17.3185 9.71217 17.2174 9.87104 17.0884 10.0058L10.0051 17.0891C9.87339 17.2219 9.7167 17.3273 9.54407 17.3992C9.37144 17.4711 9.18627 17.5082 8.99925 17.5082C8.81223 17.5082 8.62707 17.4711 8.45443 17.3992C8.2818 17.3273 8.12512 17.2219 7.99342 17.0891C7.86064 16.9574 7.75525 16.8007 7.68332 16.6281C7.6114 16.4555 7.57437 16.2703 7.57437 16.0833C7.57437 15.8963 7.6114 15.7111 7.68332 15.5385C7.75525 15.3658 7.86064 15.2091 7.99342 15.0774L12.6684 10.4166H1.91592C1.5402 10.4166 1.17986 10.2673 0.914183 10.0017C0.648506 9.736 0.499252 9.37566 0.499252 8.99994C0.499252 8.62421 0.648506 8.26388 0.914183 7.9982C1.17986 7.73253 1.5402 7.58327 1.91592 7.58327Z" fill="black"/>
</svg>
