<svg width="12" height="12" viewBox="0 0 9 9" fill="none" xmlns="http://www.w3.org/2000/svg">
<path d="M0.750312 3.74998L6.44518 3.74998L3.96915 1.28451C3.82786 1.1434 3.74849 0.95201 3.74849 0.752448C3.74849 0.552887 3.82786 0.361498 3.96915 0.220387C4.11044 0.0792753 4.30206 -4.10707e-07 4.50187 -3.93239e-07C4.70168 -3.75771e-07 4.89331 0.0792753 5.03459 0.220387L8.78615 3.9673C8.85446 4.03857 8.90801 4.12261 8.94372 4.2146C9.01876 4.39704 9.01876 4.60168 8.94372 4.78413C8.90801 4.87611 8.85446 4.96015 8.78615 5.03142L5.03459 8.77833C4.96484 8.84857 4.88186 8.90432 4.79042 8.94237C4.69899 8.98041 4.60092 9 4.50187 9C4.40282 9 4.30475 8.98041 4.21332 8.94237C4.12189 8.90432 4.0389 8.84857 3.96915 8.77833C3.89882 8.70867 3.843 8.62579 3.80491 8.53447C3.76682 8.44315 3.74721 8.3452 3.74721 8.24627C3.74721 8.14735 3.76682 8.0494 3.80491 7.95808C3.843 7.86676 3.89882 7.78388 3.96915 7.71421L6.44518 5.24874L0.750312 5.24874C0.551318 5.24874 0.360472 5.16979 0.219761 5.02925C0.0790506 4.88872 5.42952e-07 4.69811 5.60328e-07 4.49936C5.77703e-07 4.30061 0.0790507 4.11 0.219762 3.96947C0.360472 3.82893 0.551318 3.74998 0.750312 3.74998Z" fill="black"/>
</svg>
