<svg width="18" height="18" viewBox="0 0 18 18" fill="none" xmlns="http://www.w3.org/2000/svg">
<path d="M16.0841 7.58327H5.33158L10.0066 2.92244C10.2733 2.65567 10.4232 2.29386 10.4232 1.9166C10.4232 1.53934 10.2733 1.17753 10.0066 0.910771C9.73982 0.644007 9.37801 0.494141 9.00075 0.494141C8.62349 0.494141 8.26168 0.644007 7.99492 0.910771L0.911582 7.9941C0.782607 8.12883 0.681507 8.28771 0.614082 8.4616C0.472389 8.80651 0.472389 9.19337 0.614082 9.53827C0.681507 9.71217 0.782607 9.87104 0.911582 10.0058L7.99492 17.0891C8.12661 17.2219 8.2833 17.3273 8.45593 17.3992C8.62856 17.4711 8.81373 17.5082 9.00075 17.5082C9.18777 17.5082 9.37293 17.4711 9.54557 17.3992C9.7182 17.3273 9.87488 17.2219 10.0066 17.0891C10.1394 16.9574 10.2448 16.8007 10.3167 16.6281C10.3886 16.4555 10.4256 16.2703 10.4256 16.0833C10.4256 15.8963 10.3886 15.7111 10.3167 15.5385C10.2448 15.3658 10.1394 15.2091 10.0066 15.0774L5.33158 10.4166H16.0841C16.4598 10.4166 16.8201 10.2673 17.0858 10.0017C17.3515 9.73599 17.5007 9.37566 17.5007 8.99994C17.5007 8.62421 17.3515 8.26388 17.0858 7.9982C16.8201 7.73253 16.4598 7.58327 16.0841 7.58327Z" fill="black"/>
</svg>
