<svg width="18" height="18" viewBox="0 0 18 18" fill="none" xmlns="http://www.w3.org/2000/svg">
<path d="M7.49906 13.4999C7.30015 13.4999 7.10938 13.4208 6.96873 13.2802C6.82808 13.1395 6.74906 12.9488 6.74906 12.7499V11.2499C6.74906 11.051 6.82808 10.8602 6.96873 10.7195C7.10938 10.5789 7.30015 10.4999 7.49906 10.4999C7.69797 10.4999 7.88873 10.5789 8.02939 10.7195C8.17004 10.8602 8.24906 11.051 8.24906 11.2499V12.7499C8.24906 12.9488 8.17004 13.1395 8.02939 13.2802C7.88873 13.4208 7.69797 13.4999 7.49906 13.4999ZM10.4991 13.4999C10.3001 13.4999 10.1094 13.4208 9.96873 13.2802C9.82807 13.1395 9.74906 12.9488 9.74906 12.7499V11.2499C9.74906 11.051 9.82807 10.8602 9.96873 10.7195C10.1094 10.5789 10.3001 10.4999 10.4991 10.4999C10.698 10.4999 10.8887 10.5789 11.0294 10.7195C11.17 10.8602 11.2491 11.051 11.2491 11.2499V12.7499C11.2491 12.9488 11.17 13.1395 11.0294 13.2802C10.8887 13.4208 10.698 13.4999 10.4991 13.4999ZM3.74906 4.49987H4.78406L6.08156 1.91237C6.1212 1.81716 6.18006 1.73115 6.25445 1.65971C6.32884 1.58828 6.41717 1.53296 6.51391 1.4972C6.61065 1.46144 6.71372 1.44602 6.81669 1.4519C6.91965 1.45778 7.0203 1.48484 7.11234 1.53137C7.20438 1.57791 7.28583 1.64293 7.35161 1.72237C7.41738 1.80181 7.46607 1.89396 7.49462 1.99306C7.52317 2.09217 7.53097 2.1961 7.51754 2.29835C7.50411 2.40061 7.46973 2.499 7.41656 2.58737L6.46406 4.49987H11.5341L10.5816 2.58737C10.5088 2.41255 10.5048 2.21666 10.5704 2.03903C10.6361 1.86141 10.7665 1.71519 10.9355 1.62974C11.1045 1.54429 11.2996 1.52594 11.4815 1.57836C11.6635 1.63079 11.8189 1.75011 11.9166 1.91237L13.2141 4.49987H14.2491C14.7792 4.50793 15.2894 4.70293 15.6898 5.05047C16.0901 5.39801 16.3549 5.87576 16.4374 6.39947C16.5199 6.92318 16.4148 7.45921 16.1407 7.913C15.8666 8.3668 15.441 8.70922 14.9391 8.87987L14.3841 14.4749C14.3281 15.0318 14.0665 15.5479 13.6505 15.9223C13.2345 16.2967 12.6938 16.5027 12.1341 16.4999H5.84906C5.28933 16.5027 4.74866 16.2967 4.33261 15.9223C3.91657 15.5479 3.65502 15.0318 3.59906 14.4749L3.04406 8.87987C2.54101 8.70871 2.11477 8.36504 1.84083 7.90973C1.56689 7.45441 1.46294 6.91684 1.54738 6.39223C1.63182 5.86761 1.89921 5.38981 2.30218 5.04345C2.70516 4.69709 3.21771 4.50453 3.74906 4.49987ZM5.10656 14.3249C5.12521 14.5105 5.21239 14.6825 5.35108 14.8073C5.48976 14.9322 5.66998 15.0008 5.85656 14.9999H12.1416C12.3281 15.0008 12.5084 14.9322 12.647 14.8073C12.7857 14.6825 12.8729 14.5105 12.8916 14.3249L13.4241 8.99987H4.57406L5.10656 14.3249ZM3.74906 7.49987H14.2491C14.448 7.49987 14.6387 7.42085 14.7794 7.2802C14.92 7.13954 14.9991 6.94878 14.9991 6.74987C14.9991 6.55095 14.92 6.36019 14.7794 6.21954C14.6387 6.07889 14.448 5.99987 14.2491 5.99987H3.74906C3.55015 5.99987 3.35938 6.07889 3.21873 6.21954C3.07808 6.36019 2.99906 6.55095 2.99906 6.74987C2.99906 6.94878 3.07808 7.13954 3.21873 7.2802C3.35938 7.42085 3.55015 7.49987 3.74906 7.49987Z" fill="black"/>
</svg>
