<svg width="16" height="16" viewBox="0 0 16 16" fill="none" xmlns="http://www.w3.org/2000/svg">
<path fill-rule="evenodd" clip-rule="evenodd" d="M1 3.72222C1 1.68039 1.02186 1 3.72222 1C6.42258 1 6.44444 1.68039 6.44444 3.72222C6.44444 5.76405 6.45306 6.44444 3.72222 6.44444C0.991388 6.44444 1 5.76405 1 3.72222Z" fill="#FFAA00" stroke="#FFAA00" stroke-linecap="round" stroke-linejoin="round"/>
<path fill-rule="evenodd" clip-rule="evenodd" d="M9.55469 3.72222C9.55469 1.68039 9.57655 1 12.2769 1C14.9773 1 14.9991 1.68039 14.9991 3.72222C14.9991 5.76405 15.0077 6.44444 12.2769 6.44444C9.54608 6.44444 9.55469 5.76405 9.55469 3.72222Z" fill="#FFAA00" stroke="#FFAA00" stroke-linecap="round" stroke-linejoin="round"/>
<path fill-rule="evenodd" clip-rule="evenodd" d="M1 12.2779C1 10.2361 1.02186 9.55566 3.72222 9.55566C6.42258 9.55566 6.44444 10.2361 6.44444 12.2779C6.44444 14.3197 6.45306 15.0001 3.72222 15.0001C0.991388 15.0001 1 14.3197 1 12.2779Z" fill="#FFAA00" stroke="#FFAA00" stroke-linecap="round" stroke-linejoin="round"/>
<path fill-rule="evenodd" clip-rule="evenodd" d="M9.55469 12.2779C9.55469 10.2361 9.57655 9.55566 12.2769 9.55566C14.9773 9.55566 14.9991 10.2361 14.9991 12.2779C14.9991 14.3197 15.0077 15.0001 12.2769 15.0001C9.54608 15.0001 9.55469 14.3197 9.55469 12.2779Z" fill="#FFAA00" stroke="#FFAA00" stroke-linecap="round" stroke-linejoin="round"/>
</svg>
