<svg width="80" height="80" viewBox="0 0 80 80" fill="none" xmlns="http://www.w3.org/2000/svg">
<path d="M71.6673 48.6665C76.0007 49.9998 78.334 51.6665 78.334 53.3332C78.334 57.9998 61.0007 68.3332 40.0007 68.3332C19.0007 68.3332 1.66732 57.9998 1.66732 53.3332C1.66732 51.6665 4.00065 49.9998 8.33399 48.6665" stroke="black" stroke-width="3" stroke-linecap="round" stroke-linejoin="round"/>
<path d="M51.3327 17.3335C63.3327 22.0002 71.3327 33.6668 71.666 46.6668V51.6668C71.666 51.6668 61.666 58.3335 39.9993 58.3335C18.3327 58.3335 8.33268 51.6668 8.33268 51.6668V46.6668C8.33268 33.6668 16.3327 22.0002 28.666 17.3335" stroke="black" stroke-width="3" stroke-linecap="round" stroke-linejoin="round"/>
<path d="M45 44.9998V16.6665C45 13.9998 42.6667 11.6665 40 11.6665C37.3333 11.6665 35 13.9998 35 16.6665V44.9998" stroke="black" stroke-width="3" stroke-linecap="round" stroke-linejoin="round"/>
<path d="M44.666 15H51.666L49.9993 35M29.9993 35L28.3327 15H35.3327" stroke="black" stroke-width="3" stroke-linecap="round" stroke-linejoin="round"/>
</svg>
