<svg width="50" height="61" viewBox="0 0 60 61" fill="none" xmlns="http://www.w3.org/2000/svg">
<g clip-path="url(#clip0_1_429)">
<path d="M58.0267 36.6821L58.0268 36.682L58.0232 36.6736C57.5748 35.6248 56.8062 34.8359 55.8954 34.4635C54.9792 34.0889 53.9349 34.1434 52.9708 34.757L52.9642 34.7612L52.9579 34.7658L39.6641 44.4474C39.1109 44.8206 39.0302 45.5405 39.3316 46.1C39.4906 46.3953 39.7397 46.5881 40.0301 46.6528C40.3181 46.7169 40.6215 46.6495 40.884 46.4742L40.8841 46.4744L40.8928 46.468L54.097 36.7896C54.4148 36.5961 54.7786 36.5601 55.1171 36.6858C55.4577 36.8122 55.7945 37.1113 56.0276 37.6265C56.2192 38.1437 56.2385 38.7286 56.1024 39.2483C55.9654 39.7713 55.6774 40.2075 55.2768 40.4509L55.2677 40.4564L55.2591 40.4627C46.1006 47.1537 43.7689 48.9022 41.3967 50.5939C39.6623 51.8309 37.9062 53.0375 33.4442 56.1237C32.2312 56.9337 30.7815 57.1117 29.4953 56.6658L18.0783 52.1106L18.0336 52.0928H18.0057C17.9997 52.0903 17.9944 52.0878 17.9868 52.0843C17.9784 52.0804 17.9672 52.0751 17.9488 52.0669C17.8816 52.037 17.7804 51.9978 17.6447 51.9978H17.6354L17.6261 51.9985L14.0588 52.2634V35.1568C15.0804 34.8739 16.9637 34.4644 18.9241 34.5412C21.0088 34.6229 23.1304 35.2509 24.4297 37.1052L24.4295 37.1053L24.4363 37.1142C24.983 37.8246 25.8176 38.3511 26.7655 38.3511H36.5682C36.9382 38.3511 37.2966 38.557 37.5717 38.9268C37.8463 39.2959 38.0231 39.8124 38.0231 40.3797C38.0231 40.9471 37.8463 41.4635 37.5717 41.8327C37.2966 42.2025 36.9382 42.4084 36.5682 42.4084H27.1917C26.1405 42.4084 25.2105 43.05 24.6656 44.1625C24.1146 45.2877 24.2098 46.7033 24.8421 47.8118C25.0074 48.1168 25.2687 48.2856 25.5657 48.3187C25.8522 48.3506 26.1448 48.254 26.3929 48.0882C26.6856 47.8926 26.8182 47.5755 26.8441 47.2727C26.8694 46.9765 26.7967 46.6628 26.6394 46.4229C26.431 46.0285 26.4306 45.5622 26.5555 45.257C26.5736 45.2334 26.5933 45.206 26.6107 45.1818C26.6201 45.1686 26.6289 45.1564 26.6364 45.1462C26.6761 45.0924 26.7214 45.0347 26.7736 44.9815C26.8817 44.8711 26.9915 44.8073 27.1064 44.8073H36.483C38.5421 44.8073 40.1426 42.7458 40.1426 40.3797C40.1426 38.0137 38.5421 35.9522 36.483 35.9522H26.7655C26.7152 35.9522 26.5957 35.9357 26.4583 35.8847C26.3276 35.8362 26.2014 35.764 26.1098 35.667C24.5177 33.315 22.0517 32.4437 19.692 32.2266C17.5058 32.0256 15.3819 32.3825 14.0588 32.6637V30.9802C14.0588 30.6461 13.9584 30.3453 13.7604 30.1248C13.5603 29.9019 13.2776 29.7808 12.9564 29.7808H2.72741C2.40622 29.7808 2.12354 29.9019 1.92339 30.1248C1.72543 30.3453 1.625 30.6461 1.625 30.9802V55.7608C1.625 56.0949 1.72543 56.3957 1.92339 56.6162C2.12354 56.8391 2.40622 56.9602 2.72741 56.9602H12.9564C13.2776 56.9602 13.5603 56.8391 13.7604 56.6162C13.9584 56.3957 14.0588 56.0949 14.0588 55.7608V54.6692L17.5178 54.4941L28.7174 58.9358C28.7178 58.9359 28.7181 58.9361 28.7184 58.9362C30.6798 59.7302 32.8132 59.4268 34.6644 58.1504L34.6665 58.1488C38.0746 55.7456 39.9453 54.4421 41.2788 53.5128C44.5802 51.2123 44.589 51.2062 56.4819 42.4877C57.3588 41.9685 57.9402 41.0275 58.2062 39.9783C58.4737 38.9228 58.43 37.7304 58.0267 36.6821ZM11.854 54.6563H3.82983V32.2746H11.854V54.6563Z" fill="black" stroke="black" stroke-width="0.5"/>
<mask id="path-2-outside-1_1_429" maskUnits="userSpaceOnUse" x="2.58008" y="-1" width="54" height="34" fill="black">
<rect fill="white" x="2.58008" y="-1" width="54" height="34"/>
<path d="M4.34712 18.172L6.90394 18.5133C7.15962 19.6224 7.58576 20.5608 8.18235 21.4993L6.64826 23.5469C6.39258 23.8881 6.39258 24.4 6.73349 24.6559L8.86417 26.7888C9.20508 27.1301 9.63121 27.1301 9.97212 26.8741L12.0176 25.3385C12.9551 25.9357 13.9778 26.3622 15.0005 26.6182L15.3414 29.1776C15.4267 29.6042 15.7676 29.9455 16.1937 29.9455H19.1767C19.6028 29.9455 19.9437 29.6042 20.0289 29.1776L20.3699 26.6182C21.1369 26.4476 21.9039 26.1063 22.5858 25.765V30.7133C22.5858 31.2252 22.9267 31.5664 23.438 31.5664H55.0574C55.5687 31.5664 55.9096 31.2252 55.9096 30.7133V0.853147C55.9096 0.341259 55.5687 0 55.0574 0H23.438C22.9267 0 22.5858 0.341259 22.5858 0.853147V5.88671C21.9039 5.54545 21.1369 5.28951 20.3699 5.03357L20.0289 2.47413C19.9437 2.04755 19.6028 1.70629 19.1767 1.70629H16.1937C15.7676 1.70629 15.4267 2.04755 15.3414 2.47413L15.0005 5.03357C13.8926 5.28951 12.9551 5.71608 12.0176 6.31329L9.8869 4.77762C9.54599 4.52168 9.11985 4.52168 8.77894 4.77762L6.73349 6.91049C6.39258 7.25175 6.39258 7.67832 6.64826 8.01958L8.18235 10.0671C7.58576 11.0056 7.15962 12.0294 6.90394 13.0531L4.34712 13.3944C3.92099 13.4797 3.58008 13.821 3.58008 14.2476V17.2336C3.66531 17.7455 3.92099 18.0867 4.34712 18.172ZM24.2903 29.8601V25.9357L25.3983 26.7888C25.5687 26.8741 25.7392 26.9594 25.9096 26.9594C26.1653 26.9594 26.421 26.8741 26.5914 26.7035L28.6369 24.6559C28.9778 24.3147 28.9778 23.8881 28.7221 23.5469L27.188 21.4993C27.7846 20.5608 28.2108 19.5371 28.4664 18.5133L31.0233 18.172C31.4494 18.0867 31.7903 17.7455 31.7903 17.3189V14.3329C31.7903 13.9063 31.4494 13.565 31.0233 13.4797L28.4664 13.1385C28.2108 12.0294 27.7846 11.0909 27.188 10.1524L27.7846 9.38461H33.8358V15.3566C33.8358 15.6979 34.0914 16.0392 34.3471 16.1245C34.688 16.2098 35.0289 16.1245 35.2846 15.8685L39.2903 11.4322L43.296 15.8685C43.5517 16.1245 43.8926 16.2098 44.2335 16.1245C44.5744 16.0392 44.7449 15.6979 44.7449 15.3566V9.38461H54.2051V29.8601H24.2903ZM35.4551 8.53147C35.4551 8.44615 35.4551 8.44615 35.4551 8.53147V1.70629H42.9551V13.1385L39.8017 9.64056C39.6312 9.46993 39.3755 9.38461 39.2051 9.38461C38.9494 9.38461 38.6937 9.46993 38.6085 9.64056L35.4551 13.1385V8.53147ZM54.1199 7.59301H44.6596V1.70629H54.1199V7.59301ZM33.7505 1.70629V7.67832H28.8074C28.8074 7.42238 28.7221 7.08112 28.5517 6.91049L26.5062 4.86294C26.1653 4.52168 25.7392 4.52168 25.3983 4.77762L24.2903 5.63077V1.70629H33.7505ZM5.36985 15.0154L7.75621 14.6741C8.09712 14.5888 8.43803 14.3329 8.52326 13.9916C8.69371 12.7972 9.20508 11.6028 9.97212 10.579C10.1426 10.2378 10.1426 9.8965 9.97212 9.55524L8.43803 7.59301L9.46076 6.56923L11.3358 8.01958C11.5914 8.27552 12.1028 8.27552 12.3585 8.01958C13.4664 7.33706 14.6596 6.82517 15.938 6.56923C16.2789 6.48392 16.5346 6.22797 16.6199 5.8014L16.9608 3.41259H18.4096L18.7505 5.8014C18.8358 6.14266 19.0914 6.48392 19.4324 6.56923C20.7108 6.82517 21.9039 7.33706 22.9267 8.01958C23.2676 8.27552 23.6937 8.19021 23.9494 8.01958L25.9096 6.56923L26.9324 7.59301L25.4835 9.55524C25.2278 9.81119 25.2278 10.2378 25.4835 10.579C26.1653 11.6028 26.6767 12.7972 26.9324 14.0769C27.0176 14.4182 27.2733 14.6741 27.6994 14.7594L30.0858 15.1007V16.551L27.6994 16.8923C27.3585 16.9776 27.0176 17.2336 26.9324 17.5748C26.6767 18.8545 26.1653 20.049 25.4835 21.0727C25.313 21.414 25.313 21.7552 25.4835 22.0965L26.9324 24.0587L25.9096 25.0825L23.9494 23.6322C23.6937 23.3762 23.2676 23.3762 22.9267 23.6322C21.9039 24.3147 20.7108 24.8266 19.4324 25.0825C19.0914 25.1678 18.8358 25.4238 18.7505 25.8503L18.4096 28.1538H16.9608L16.6199 25.765C16.5346 25.4238 16.2789 25.0825 15.938 24.9972C14.6596 24.7413 13.4664 24.2294 12.4437 23.5469C12.1028 23.3762 11.7619 23.3762 11.421 23.5469L9.46076 24.9972L8.43803 23.9734L9.8869 22.0965C10.1426 21.8406 10.1426 21.3287 9.8869 20.9874C9.20508 19.9636 8.69371 18.7692 8.52326 17.5748C8.43803 17.2336 8.18235 16.9776 7.75621 16.8923L5.36985 16.551V15.0154Z"/>
</mask>
<path d="M4.34712 18.172L6.90394 18.5133C7.15962 19.6224 7.58576 20.5608 8.18235 21.4993L6.64826 23.5469C6.39258 23.8881 6.39258 24.4 6.73349 24.6559L8.86417 26.7888C9.20508 27.1301 9.63121 27.1301 9.97212 26.8741L12.0176 25.3385C12.9551 25.9357 13.9778 26.3622 15.0005 26.6182L15.3414 29.1776C15.4267 29.6042 15.7676 29.9455 16.1937 29.9455H19.1767C19.6028 29.9455 19.9437 29.6042 20.0289 29.1776L20.3699 26.6182C21.1369 26.4476 21.9039 26.1063 22.5858 25.765V30.7133C22.5858 31.2252 22.9267 31.5664 23.438 31.5664H55.0574C55.5687 31.5664 55.9096 31.2252 55.9096 30.7133V0.853147C55.9096 0.341259 55.5687 0 55.0574 0H23.438C22.9267 0 22.5858 0.341259 22.5858 0.853147V5.88671C21.9039 5.54545 21.1369 5.28951 20.3699 5.03357L20.0289 2.47413C19.9437 2.04755 19.6028 1.70629 19.1767 1.70629H16.1937C15.7676 1.70629 15.4267 2.04755 15.3414 2.47413L15.0005 5.03357C13.8926 5.28951 12.9551 5.71608 12.0176 6.31329L9.8869 4.77762C9.54599 4.52168 9.11985 4.52168 8.77894 4.77762L6.73349 6.91049C6.39258 7.25175 6.39258 7.67832 6.64826 8.01958L8.18235 10.0671C7.58576 11.0056 7.15962 12.0294 6.90394 13.0531L4.34712 13.3944C3.92099 13.4797 3.58008 13.821 3.58008 14.2476V17.2336C3.66531 17.7455 3.92099 18.0867 4.34712 18.172ZM24.2903 29.8601V25.9357L25.3983 26.7888C25.5687 26.8741 25.7392 26.9594 25.9096 26.9594C26.1653 26.9594 26.421 26.8741 26.5914 26.7035L28.6369 24.6559C28.9778 24.3147 28.9778 23.8881 28.7221 23.5469L27.188 21.4993C27.7846 20.5608 28.2108 19.5371 28.4664 18.5133L31.0233 18.172C31.4494 18.0867 31.7903 17.7455 31.7903 17.3189V14.3329C31.7903 13.9063 31.4494 13.565 31.0233 13.4797L28.4664 13.1385C28.2108 12.0294 27.7846 11.0909 27.188 10.1524L27.7846 9.38461H33.8358V15.3566C33.8358 15.6979 34.0914 16.0392 34.3471 16.1245C34.688 16.2098 35.0289 16.1245 35.2846 15.8685L39.2903 11.4322L43.296 15.8685C43.5517 16.1245 43.8926 16.2098 44.2335 16.1245C44.5744 16.0392 44.7449 15.6979 44.7449 15.3566V9.38461H54.2051V29.8601H24.2903ZM35.4551 8.53147C35.4551 8.44615 35.4551 8.44615 35.4551 8.53147V1.70629H42.9551V13.1385L39.8017 9.64056C39.6312 9.46993 39.3755 9.38461 39.2051 9.38461C38.9494 9.38461 38.6937 9.46993 38.6085 9.64056L35.4551 13.1385V8.53147ZM54.1199 7.59301H44.6596V1.70629H54.1199V7.59301ZM33.7505 1.70629V7.67832H28.8074C28.8074 7.42238 28.7221 7.08112 28.5517 6.91049L26.5062 4.86294C26.1653 4.52168 25.7392 4.52168 25.3983 4.77762L24.2903 5.63077V1.70629H33.7505ZM5.36985 15.0154L7.75621 14.6741C8.09712 14.5888 8.43803 14.3329 8.52326 13.9916C8.69371 12.7972 9.20508 11.6028 9.97212 10.579C10.1426 10.2378 10.1426 9.8965 9.97212 9.55524L8.43803 7.59301L9.46076 6.56923L11.3358 8.01958C11.5914 8.27552 12.1028 8.27552 12.3585 8.01958C13.4664 7.33706 14.6596 6.82517 15.938 6.56923C16.2789 6.48392 16.5346 6.22797 16.6199 5.8014L16.9608 3.41259H18.4096L18.7505 5.8014C18.8358 6.14266 19.0914 6.48392 19.4324 6.56923C20.7108 6.82517 21.9039 7.33706 22.9267 8.01958C23.2676 8.27552 23.6937 8.19021 23.9494 8.01958L25.9096 6.56923L26.9324 7.59301L25.4835 9.55524C25.2278 9.81119 25.2278 10.2378 25.4835 10.579C26.1653 11.6028 26.6767 12.7972 26.9324 14.0769C27.0176 14.4182 27.2733 14.6741 27.6994 14.7594L30.0858 15.1007V16.551L27.6994 16.8923C27.3585 16.9776 27.0176 17.2336 26.9324 17.5748C26.6767 18.8545 26.1653 20.049 25.4835 21.0727C25.313 21.414 25.313 21.7552 25.4835 22.0965L26.9324 24.0587L25.9096 25.0825L23.9494 23.6322C23.6937 23.3762 23.2676 23.3762 22.9267 23.6322C21.9039 24.3147 20.7108 24.8266 19.4324 25.0825C19.0914 25.1678 18.8358 25.4238 18.7505 25.8503L18.4096 28.1538H16.9608L16.6199 25.765C16.5346 25.4238 16.2789 25.0825 15.938 24.9972C14.6596 24.7413 13.4664 24.2294 12.4437 23.5469C12.1028 23.3762 11.7619 23.3762 11.421 23.5469L9.46076 24.9972L8.43803 23.9734L9.8869 22.0965C10.1426 21.8406 10.1426 21.3287 9.8869 20.9874C9.20508 19.9636 8.69371 18.7692 8.52326 17.5748C8.43803 17.2336 8.18235 16.9776 7.75621 16.8923L5.36985 16.551V15.0154Z" fill="black"/>
<path d="M4.34712 18.172L4.24897 18.6623L4.26489 18.6655L4.28097 18.6676L4.34712 18.172ZM6.90394 18.5133L7.39116 18.401L7.31337 18.0635L6.97009 18.0177L6.90394 18.5133ZM8.18235 21.4993L8.5825 21.7991L8.78965 21.5226L8.60431 21.2311L8.18235 21.4993ZM6.64826 23.5469L6.24811 23.247L6.64826 23.5469ZM6.73349 24.6559L7.08722 24.3026L7.0621 24.2774L7.03368 24.2561L6.73349 24.6559ZM8.86417 26.7888L8.51043 27.1422L8.86417 26.7888ZM9.97212 26.8741L9.67193 26.4743L9.97212 26.8741ZM12.0176 25.3385L12.2862 24.9168L11.9942 24.7308L11.7174 24.9386L12.0176 25.3385ZM15.0005 26.6182L15.4962 26.5522L15.4513 26.2156L15.1219 26.1331L15.0005 26.6182ZM15.3414 29.1776L14.8458 29.2436L14.848 29.2597L14.8511 29.2756L15.3414 29.1776ZM20.0289 29.1776L20.5193 29.2756L20.5224 29.2597L20.5246 29.2436L20.0289 29.1776ZM20.3699 26.6182L20.2613 26.1301L19.9203 26.206L19.8742 26.5522L20.3699 26.6182ZM22.5858 25.765H23.0858V24.9556L22.362 25.3179L22.5858 25.765ZM22.5858 5.88671L22.362 6.33384L23.0858 6.6961V5.88671H22.5858ZM20.3699 5.03357L19.8742 5.09958L19.9154 5.40904L20.2116 5.50786L20.3699 5.03357ZM20.0289 2.47413L20.5246 2.40811L20.5224 2.39205L20.5193 2.37616L20.0289 2.47413ZM15.3414 2.47413L14.8511 2.37616L14.848 2.39205L14.8458 2.40811L15.3414 2.47413ZM15.0005 5.03357L15.1131 5.52074L15.4504 5.4428L15.4962 5.09958L15.0005 5.03357ZM12.0176 6.31329L11.7252 6.71891L12.0003 6.91714L12.2862 6.73499L12.0176 6.31329ZM9.8869 4.77762L9.58664 5.17755L9.59455 5.18325L9.8869 4.77762ZM8.77894 4.77762L8.47875 4.37777L8.44622 4.40219L8.41807 4.43154L8.77894 4.77762ZM6.73349 6.91049L7.0873 7.26394L7.09436 7.25657L6.73349 6.91049ZM6.64826 8.01958L7.04841 7.71978L6.64826 8.01958ZM8.18235 10.0671L8.60431 10.3354L8.78965 10.0438L8.5825 9.76733L8.18235 10.0671ZM6.90394 13.0531L6.97009 13.5488L7.30675 13.5038L7.38904 13.1743L6.90394 13.0531ZM4.34712 13.3944L4.28098 12.8988L4.26489 12.9009L4.24897 12.9041L4.34712 13.3944ZM3.58008 17.2336H3.08008V17.2749L3.08687 17.3157L3.58008 17.2336ZM24.2903 29.8601H23.7903V30.3601H24.2903V29.8601ZM24.2903 25.9357L24.5954 25.5395L23.7903 24.9196V25.9357H24.2903ZM25.3983 26.7888L25.0932 27.185L25.1314 27.2144L25.1745 27.2359L25.3983 26.7888ZM26.5914 26.7035L26.9452 27.0569L26.5914 26.7035ZM28.6369 24.6559L28.2832 24.3026L28.6369 24.6559ZM28.7221 23.5469L28.322 23.8467H28.322L28.7221 23.5469ZM27.188 21.4993L26.7661 21.2311L26.5807 21.5226L26.7879 21.7991L27.188 21.4993ZM28.4664 18.5133L28.4003 18.0177L28.0636 18.0626L27.9813 18.3921L28.4664 18.5133ZM31.0233 18.172L31.0894 18.6676L31.1055 18.6655L31.1214 18.6623L31.0233 18.172ZM31.0233 13.4797L31.1214 12.9894L31.1055 12.9863L31.0894 12.9841L31.0233 13.4797ZM28.4664 13.1385L27.9792 13.2508L28.057 13.5882L28.4003 13.6341L28.4664 13.1385ZM27.188 10.1524L26.7932 9.84567L26.5772 10.1236L26.7661 10.4207L27.188 10.1524ZM27.7846 9.38461V8.88461H27.5399L27.3898 9.07784L27.7846 9.38461ZM33.8358 9.38461H34.3358V8.88461H33.8358V9.38461ZM34.3471 16.1245L34.1889 16.5988L34.2071 16.6049L34.2257 16.6095L34.3471 16.1245ZM35.2846 15.8685L35.6384 16.2219L35.6473 16.213L35.6557 16.2036L35.2846 15.8685ZM39.2903 11.4322L39.6614 11.0971L39.2903 10.6861L38.9192 11.0971L39.2903 11.4322ZM43.296 15.8685L42.9249 16.2036L42.9333 16.213L42.9423 16.2219L43.296 15.8685ZM44.7449 9.38461V8.88461H44.2449V9.38461H44.7449ZM54.2051 9.38461H54.7051V8.88461H54.2051V9.38461ZM54.2051 29.8601V30.3601H54.7051V29.8601H54.2051ZM35.4551 1.70629V1.20629H34.9551V1.70629H35.4551ZM42.9551 1.70629H43.4551V1.20629H42.9551V1.70629ZM42.9551 13.1385L42.5837 13.4733L43.4551 14.4398V13.1385H42.9551ZM39.8017 9.64056L40.173 9.30577L40.1645 9.29625L40.1554 9.28719L39.8017 9.64056ZM38.6085 9.64056L38.9799 9.97535L39.0254 9.92483L39.0558 9.86398L38.6085 9.64056ZM35.4551 13.1385H34.9551V14.4398L35.8264 13.4733L35.4551 13.1385ZM54.1199 7.59301V8.09301H54.6199V7.59301H54.1199ZM44.6596 7.59301H44.1596V8.09301H44.6596V7.59301ZM44.6596 1.70629V1.20629H44.1596V1.70629H44.6596ZM54.1199 1.70629H54.6199V1.20629H54.1199V1.70629ZM33.7505 1.70629H34.2505V1.20629H33.7505V1.70629ZM33.7505 7.67832V8.17832H34.2505V7.67832H33.7505ZM28.8074 7.67832H28.3074V8.17832H28.8074V7.67832ZM28.5517 6.91049L28.1979 7.26386V7.26386L28.5517 6.91049ZM26.5062 4.86294L26.8599 4.50956L26.5062 4.86294ZM25.3983 4.77762L25.098 4.37774L25.0932 4.38146L25.3983 4.77762ZM24.2903 5.63077H23.7903V6.64684L24.5954 6.02693L24.2903 5.63077ZM24.2903 1.70629V1.20629H23.7903V1.70629H24.2903ZM5.36985 15.0154L5.29907 14.5204L4.86985 14.5818V15.0154H5.36985ZM7.75621 14.6741L7.827 15.1691L7.85255 15.1654L7.8776 15.1592L7.75621 14.6741ZM8.52326 13.9916L9.00836 14.1128L9.0146 14.0878L9.01825 14.0622L8.52326 13.9916ZM9.97212 10.579L10.3723 10.8788L10.3993 10.8428L10.4194 10.8024L9.97212 10.579ZM9.97212 9.55524L10.4194 9.33182L10.397 9.28687L10.366 9.24729L9.97212 9.55524ZM8.43803 7.59301L8.0843 7.23963L7.77172 7.55253L8.04413 7.90096L8.43803 7.59301ZM9.46076 6.56923L9.76668 6.17374L9.4183 5.90426L9.10703 6.21586L9.46076 6.56923ZM11.3358 8.01958L11.6895 7.66621L11.6669 7.64362L11.6417 7.62409L11.3358 8.01958ZM12.3585 8.01958L12.0962 7.59387L12.0463 7.62467L12.0048 7.66621L12.3585 8.01958ZM15.938 6.56923L16.0362 7.0595L16.0479 7.05716L16.0594 7.05427L15.938 6.56923ZM16.6199 5.8014L17.1102 5.89936L17.1129 5.88576L17.1148 5.87204L16.6199 5.8014ZM16.9608 3.41259V2.91259H16.5271L16.4658 3.34195L16.9608 3.41259ZM18.4096 3.41259L18.9046 3.34195L18.8433 2.91259H18.4096V3.41259ZM18.7505 5.8014L18.2555 5.87204L18.2592 5.89755L18.2654 5.92255L18.7505 5.8014ZM19.4324 6.56923L19.311 7.05427L19.3225 7.05716L19.3342 7.0595L19.4324 6.56923ZM22.9267 8.01958L23.2269 7.61973L23.2158 7.61139L23.2042 7.60369L22.9267 8.01958ZM23.9494 8.01958L24.2269 8.43547L24.237 8.42874L24.2468 8.42152L23.9494 8.01958ZM25.9096 6.56923L26.2634 6.21586L25.9587 5.91092L25.6122 6.16729L25.9096 6.56923ZM26.9324 7.59301L27.3346 7.89001L27.5901 7.54396L27.2861 7.23963L26.9324 7.59301ZM25.4835 9.55524L25.8372 9.90862L25.8636 9.88224L25.8857 9.85224L25.4835 9.55524ZM25.4835 10.579L25.8996 10.3019L25.892 10.2903L25.8836 10.2792L25.4835 10.579ZM26.9324 14.0769L26.442 14.1749L26.4444 14.1865L26.4473 14.1981L26.9324 14.0769ZM27.6994 14.7594L27.6012 15.2497L27.6149 15.2524L27.6286 15.2544L27.6994 14.7594ZM30.0858 15.1007H30.5858V14.6671L30.1565 14.6057L30.0858 15.1007ZM30.0858 16.551L30.1565 17.046L30.5858 16.9846V16.551H30.0858ZM27.6994 16.8923L27.6286 16.3973L27.6031 16.401L27.578 16.4073L27.6994 16.8923ZM26.9324 17.5748L26.4473 17.4537L26.4444 17.4652L26.442 17.4769L26.9324 17.5748ZM25.4835 21.0727L25.0673 20.7956L25.0501 20.8215L25.0362 20.8493L25.4835 21.0727ZM25.4835 22.0965L25.0362 22.3199L25.0555 22.3587L25.0813 22.3935L25.4835 22.0965ZM26.9324 24.0587L27.2861 24.4121L27.5901 24.1078L27.3346 23.7617L26.9324 24.0587ZM25.9096 25.0825L25.6122 25.4845L25.9587 25.7408L26.2634 25.4359L25.9096 25.0825ZM23.9494 23.6322L23.5957 23.9855L23.622 24.0119L23.652 24.0341L23.9494 23.6322ZM22.9267 23.6322L23.2042 24.0481L23.2158 24.0404L23.2269 24.032L22.9267 23.6322ZM19.4324 25.0825L19.3342 24.5922L19.3225 24.5946L19.311 24.5975L19.4324 25.0825ZM18.7505 25.8503L18.2602 25.7524L18.2578 25.7647L18.2559 25.7771L18.7505 25.8503ZM18.4096 28.1538V28.6538H18.8411L18.9042 28.227L18.4096 28.1538ZM16.9608 28.1538L16.4658 28.2245L16.5271 28.6538H16.9608V28.1538ZM16.6199 25.765L17.1148 25.6944L17.1112 25.6689L17.105 25.6439L16.6199 25.765ZM15.938 24.9972L16.0594 24.5122L16.0479 24.5093L16.0362 24.5069L15.938 24.9972ZM12.4437 23.5469L12.7213 23.131L12.6954 23.1137L12.6675 23.0997L12.4437 23.5469ZM11.421 23.5469L11.1972 23.0997L11.1584 23.1191L11.1236 23.1449L11.421 23.5469ZM9.46076 24.9972L9.10703 25.3506L9.41165 25.6555L9.75815 25.3991L9.46076 24.9972ZM8.43803 23.9734L8.04224 23.6679L7.77365 24.0158L8.0843 24.3268L8.43803 23.9734ZM9.8869 22.0965L9.53316 21.7431L9.5106 21.7657L9.4911 21.791L9.8869 22.0965ZM9.8869 20.9874L9.47074 21.2646L9.47843 21.2761L9.48675 21.2872L9.8869 20.9874ZM8.52326 17.5748L9.01825 17.5042L9.0146 17.4787L9.00836 17.4537L8.52326 17.5748ZM7.75621 16.8923L7.85437 16.402L7.84075 16.3993L7.827 16.3973L7.75621 16.8923ZM5.36985 16.551H4.86985V16.9846L5.29907 17.046L5.36985 16.551ZM4.28097 18.6676L6.83779 19.0089L6.97009 18.0177L4.41327 17.6764L4.28097 18.6676ZM6.41672 18.6256C6.6871 19.7984 7.13838 20.7891 7.7604 21.7675L8.60431 21.2311C8.03314 20.3326 7.63215 19.4463 7.39116 18.401L6.41672 18.6256ZM7.7822 21.1995L6.24811 23.247L7.04841 23.8467L8.5825 21.7991L7.7822 21.1995ZM6.24811 23.247C5.87965 23.7388 5.80746 24.5859 6.43329 25.0558L7.03368 24.2561C7.00006 24.2308 6.97064 24.1865 6.96646 24.1071C6.96203 24.0229 6.98992 23.9247 7.04841 23.8467L6.24811 23.247ZM6.37975 25.0093L8.51043 27.1422L9.2179 26.4354L7.08722 24.3026L6.37975 25.0093ZM8.51043 27.1422C8.75743 27.3894 9.06171 27.5364 9.39038 27.5546C9.7159 27.5728 10.0215 27.4623 10.2723 27.274L9.67193 26.4743C9.58188 26.5419 9.50392 26.5594 9.44591 26.5562C9.39106 26.5531 9.31181 26.5294 9.2179 26.4354L8.51043 27.1422ZM10.2723 27.274L12.3178 25.7383L11.7174 24.9386L9.67193 26.4743L10.2723 27.274ZM11.7489 25.7602C12.7338 26.3875 13.8066 26.8348 14.8791 27.1032L15.1219 26.1331C14.149 25.8897 13.1764 25.4838 12.2862 24.9168L11.7489 25.7602ZM14.5049 26.6842L14.8458 29.2436L15.8371 29.1116L15.4962 26.5522L14.5049 26.6842ZM14.8511 29.2756C14.9722 29.8815 15.4777 30.4455 16.1937 30.4455V29.4455C16.0574 29.4455 15.8812 29.3269 15.8318 29.0797L14.8511 29.2756ZM16.1937 30.4455H19.1767V29.4455H16.1937V30.4455ZM19.1767 30.4455C19.8927 30.4455 20.3982 29.8815 20.5193 29.2756L19.5386 29.0797C19.4892 29.3269 19.313 29.4455 19.1767 29.4455V30.4455ZM20.5246 29.2436L20.8655 26.6842L19.8742 26.5522L19.5333 29.1116L20.5246 29.2436ZM20.4784 27.1063C21.3071 26.9219 22.1186 26.558 22.8095 26.2122L22.362 25.3179C21.6893 25.6546 20.9667 25.9732 20.2613 26.1301L20.4784 27.1063ZM22.0858 25.765V30.7133H23.0858V25.765H22.0858ZM22.0858 30.7133C22.0858 31.0827 22.2109 31.4295 22.4664 31.6852C22.7219 31.941 23.0686 32.0664 23.438 32.0664V31.0664C23.2961 31.0664 23.2167 31.0213 23.1739 30.9784C23.131 30.9356 23.0858 30.8558 23.0858 30.7133H22.0858ZM23.438 32.0664H55.0574V31.0664H23.438V32.0664ZM55.0574 32.0664C55.4268 32.0664 55.7735 31.941 56.029 31.6852C56.2844 31.4295 56.4096 31.0827 56.4096 30.7133H55.4096C55.4096 30.8558 55.3644 30.9356 55.3215 30.9784C55.2787 31.0213 55.1993 31.0664 55.0574 31.0664V32.0664ZM56.4096 30.7133V0.853147H55.4096V30.7133H56.4096ZM56.4096 0.853147C56.4096 0.483733 56.2844 0.136965 56.029 -0.118757C55.7735 -0.374524 55.4268 -0.5 55.0574 -0.5V0.5C55.1993 0.5 55.2787 0.545154 55.3215 0.587987C55.3644 0.630867 55.4096 0.710673 55.4096 0.853147H56.4096ZM55.0574 -0.5H23.438V0.5H55.0574V-0.5ZM23.438 -0.5C23.0686 -0.5 22.7219 -0.374524 22.4664 -0.118757C22.2109 0.136965 22.0858 0.483733 22.0858 0.853147H23.0858C23.0858 0.710673 23.131 0.630867 23.1739 0.587987C23.2167 0.545154 23.2961 0.5 23.438 0.5V-0.5ZM22.0858 0.853147V5.88671H23.0858V0.853147H22.0858ZM22.8095 5.43959C22.0902 5.07954 21.288 4.81282 20.5281 4.55927L20.2116 5.50786C20.9858 5.7662 21.7177 6.01137 22.362 6.33384L22.8095 5.43959ZM20.8655 4.96755L20.5246 2.40811L19.5333 2.54014L19.8742 5.09958L20.8655 4.96755ZM20.5193 2.37616C20.3982 1.77028 19.8927 1.20629 19.1767 1.20629V2.20629C19.313 2.20629 19.4892 2.32483 19.5386 2.57209L20.5193 2.37616ZM19.1767 1.20629H16.1937V2.20629H19.1767V1.20629ZM16.1937 1.20629C15.4777 1.20629 14.9722 1.77028 14.8511 2.37616L15.8318 2.57209C15.8812 2.32483 16.0574 2.20629 16.1937 2.20629V1.20629ZM14.8458 2.40811L14.5049 4.96755L15.4962 5.09958L15.8371 2.54014L14.8458 2.40811ZM14.888 4.5464C13.7162 4.81709 12.7264 5.2689 11.7489 5.89158L12.2862 6.73499C13.1837 6.16327 14.069 5.76193 15.1131 5.52074L14.888 4.5464ZM12.3099 5.90766L10.1792 4.372L9.59455 5.18325L11.7252 6.71891L12.3099 5.90766ZM10.1871 4.37777C9.66833 3.9883 8.99751 3.9883 8.47875 4.37777L9.07914 5.17747C9.24219 5.05506 9.42365 5.05506 9.5867 5.17747L10.1871 4.37777ZM8.41807 4.43154L6.37262 6.56441L7.09436 7.25657L9.13981 5.1237L8.41807 4.43154ZM6.37975 6.55712C6.13275 6.80438 5.98616 7.10876 5.96792 7.43733C5.94986 7.76274 6.06001 8.06833 6.24811 8.31938L7.04841 7.71978C6.98082 7.62957 6.96314 7.55125 6.96638 7.49274C6.96946 7.43739 6.99332 7.35786 7.08722 7.26386L6.37975 6.55712ZM6.24811 8.31938L7.7822 10.3669L8.5825 9.76733L7.04841 7.71978L6.24811 8.31938ZM7.7604 9.79889C7.13372 10.7847 6.68695 11.8585 6.41884 12.932L7.38904 13.1743C7.6323 12.2003 8.0378 11.2265 8.60431 10.3354L7.7604 9.79889ZM6.83779 12.5575L4.28098 12.8988L4.41327 13.89L6.97009 13.5488L6.83779 12.5575ZM4.24897 12.9041C3.64285 13.0255 3.08008 13.5319 3.08008 14.2476H4.08008C4.08008 14.1101 4.19912 13.934 4.44528 13.8847L4.24897 12.9041ZM3.08008 14.2476V17.2336H4.08008V14.2476H3.08008ZM3.08687 17.3157C3.19274 17.9516 3.5491 18.5222 4.24897 18.6623L4.44528 17.6818C4.29288 17.6512 4.13787 17.5393 4.07329 17.1514L3.08687 17.3157ZM24.7903 29.8601V25.9357H23.7903V29.8601H24.7903ZM23.9853 26.3318L25.0932 27.185L25.7033 26.3927L24.5954 25.5395L23.9853 26.3318ZM25.1745 27.2359C25.3159 27.3067 25.598 27.4594 25.9096 27.4594V26.4594C25.8803 26.4594 25.8216 26.4416 25.6221 26.3417L25.1745 27.2359ZM25.9096 27.4594C26.2647 27.4594 26.6598 27.3426 26.9452 27.0569L26.2377 26.3501C26.1822 26.4057 26.0659 26.4594 25.9096 26.4594V27.4594ZM26.9452 27.0569L28.9906 25.0093L28.2832 24.3026L26.2377 26.3501L26.9452 27.0569ZM28.9906 25.0093C29.2376 24.7621 29.3842 24.4577 29.4025 24.1291C29.4205 23.8037 29.3104 23.4981 29.1223 23.247L28.322 23.8467C28.3896 23.9369 28.4072 24.0152 28.404 24.0737C28.4009 24.129 28.3771 24.2086 28.2832 24.3026L28.9906 25.0093ZM29.1223 23.2471L27.5882 21.1995L26.7879 21.7991L28.322 23.8467L29.1223 23.2471ZM27.61 21.7675C28.2367 20.7818 28.6834 19.708 28.9515 18.6344L27.9813 18.3921C27.7381 19.3662 27.3326 20.3399 26.7661 21.2311L27.61 21.7675ZM28.5326 19.0089L31.0894 18.6676L30.9571 17.6764L28.4003 18.0177L28.5326 19.0089ZM31.1214 18.6623C31.7275 18.541 32.2903 18.0346 32.2903 17.3189H31.2903C31.2903 17.4563 31.1713 17.6325 30.9251 17.6818L31.1214 18.6623ZM32.2903 17.3189V14.3329H31.2903V17.3189H32.2903ZM32.2903 14.3329C32.2903 13.6172 31.7275 13.1108 31.1214 12.9894L30.9251 13.97C31.1713 14.0193 31.2903 14.1954 31.2903 14.3329H32.2903ZM31.0894 12.9841L28.5326 12.6429L28.4003 13.6341L30.9571 13.9753L31.0894 12.9841ZM28.9537 13.0261C28.6833 11.8533 28.232 10.8627 27.61 9.8842L26.7661 10.4207C27.3372 11.3192 27.7382 12.2054 27.9792 13.2508L28.9537 13.0261ZM27.5829 10.4592L28.1795 9.69139L27.3898 9.07784L26.7932 9.84567L27.5829 10.4592ZM27.7846 9.88461H33.8358V8.88461H27.7846V9.88461ZM33.3358 9.38461V15.3566H34.3358V9.38461H33.3358ZM33.3358 15.3566C33.3358 15.648 33.4426 15.916 33.5843 16.1209C33.7227 16.321 33.9305 16.5126 34.1889 16.5988L34.5054 15.6502C34.508 15.6511 34.4602 15.6294 34.4068 15.5521C34.3568 15.4798 34.3358 15.4065 34.3358 15.3566H33.3358ZM34.2257 16.6095C34.73 16.7357 35.2534 16.6073 35.6384 16.2219L34.9309 15.5152C34.8045 15.6417 34.646 15.6839 34.4685 15.6394L34.2257 16.6095ZM35.6557 16.2036L39.6614 11.7672L38.9192 11.0971L34.9135 15.5335L35.6557 16.2036ZM38.9192 11.7672L42.9249 16.2036L43.6671 15.5335L39.6614 11.0971L38.9192 11.7672ZM42.9423 16.2219C43.3273 16.6073 43.8506 16.7357 44.3549 16.6095L44.1121 15.6394C43.9346 15.6839 43.7761 15.6417 43.6497 15.5152L42.9423 16.2219ZM44.3549 16.6095C45.0031 16.4473 45.2449 15.8264 45.2449 15.3566H44.2449C44.2449 15.4487 44.2211 15.5258 44.1911 15.5747C44.1647 15.6176 44.139 15.6327 44.1121 15.6394L44.3549 16.6095ZM45.2449 15.3566V9.38461H44.2449V15.3566H45.2449ZM44.7449 9.88461H54.2051V8.88461H44.7449V9.88461ZM53.7051 9.38461V29.8601H54.7051V9.38461H53.7051ZM54.2051 29.3601H24.2903V30.3601H54.2051V29.3601ZM35.9551 8.53147C35.9551 8.5313 35.9551 8.53114 35.9551 8.53097C35.9551 8.5308 35.9551 8.53064 35.9551 8.53047C35.9551 8.53031 35.9551 8.53014 35.9551 8.52998C35.9551 8.52981 35.9551 8.52965 35.9551 8.52948C35.9551 8.52932 35.9551 8.52916 35.9551 8.52899C35.9551 8.52883 35.9551 8.52867 35.9551 8.5285C35.9551 8.52834 35.9551 8.52818 35.9551 8.52802C35.9551 8.52785 35.9551 8.52769 35.9551 8.52753C35.9551 8.52737 35.9551 8.52721 35.9551 8.52705C35.9551 8.52689 35.9551 8.52673 35.9551 8.52657C35.9551 8.52641 35.9551 8.52625 35.9551 8.52609C35.9551 8.52593 35.9551 8.52577 35.9551 8.52561C35.9551 8.52545 35.9551 8.52529 35.9551 8.52514C35.9551 8.52498 35.9551 8.52482 35.9551 8.52466C35.9551 8.5245 35.9551 8.52435 35.9551 8.52419C35.9551 8.52403 35.9551 8.52388 35.9551 8.52372C35.9551 8.52356 35.9551 8.52341 35.9551 8.52325C35.9551 8.5231 35.9551 8.52294 35.9551 8.52279C35.9551 8.52263 35.9551 8.52248 35.9551 8.52232C35.9551 8.52217 35.9551 8.52201 35.9551 8.52186C35.9551 8.52171 35.9551 8.52155 35.9551 8.5214C35.9551 8.52125 35.9551 8.5211 35.9551 8.52094C35.9551 8.52079 35.9551 8.52064 35.9551 8.52049C35.9551 8.52034 35.9551 8.52018 35.9551 8.52003C35.9551 8.51988 35.9551 8.51973 35.9551 8.51958C35.9551 8.51943 35.9551 8.51928 35.9551 8.51913C35.9551 8.51898 35.9551 8.51883 35.9551 8.51868C35.9551 8.51853 35.9551 8.51839 35.9551 8.51824C35.9551 8.51809 35.9551 8.51794 35.9551 8.51779C35.9551 8.51764 35.9551 8.5175 35.9551 8.51735C35.9551 8.5172 35.9551 8.51706 35.9551 8.51691C35.9551 8.51676 35.9551 8.51662 35.9551 8.51647C35.9551 8.51633 35.9551 8.51618 35.9551 8.51604C35.9551 8.51589 35.9551 8.51575 35.9551 8.5156C35.9551 8.51546 35.9551 8.51531 35.9551 8.51517C35.9551 8.51502 35.9551 8.51488 35.9551 8.51474C35.9551 8.5146 35.9551 8.51445 35.9551 8.51431C35.9551 8.51417 35.9551 8.51402 35.9551 8.51388C35.9551 8.51374 35.9551 8.5136 35.9551 8.51346C35.9551 8.51332 35.9551 8.51318 35.9551 8.51303C35.9551 8.51289 35.9551 8.51275 35.9551 8.51261C35.9551 8.51247 35.9551 8.51233 35.9551 8.5122C35.9551 8.51206 35.9551 8.51192 35.9551 8.51178C35.9551 8.51164 35.9551 8.5115 35.9551 8.51136C35.9551 8.51123 35.9551 8.51109 35.9551 8.51095C35.9551 8.51081 35.9551 8.51068 35.9551 8.51054C35.9551 8.5104 35.9551 8.51027 35.9551 8.51013C35.9551 8.50999 35.9551 8.50986 35.9551 8.50972C35.9551 8.50959 35.9551 8.50945 35.9551 8.50932C35.9551 8.50918 35.9551 8.50905 35.9551 8.50891C35.9551 8.50878 35.9551 8.50865 35.9551 8.50851C35.9551 8.50838 35.9551 8.50825 35.9551 8.50811C35.9551 8.50798 35.9551 8.50785 35.9551 8.50772C35.9551 8.50758 35.9551 8.50745 35.9551 8.50732C35.9551 8.50719 35.9551 8.50706 35.9551 8.50693C35.9551 8.5068 35.9551 8.50667 35.9551 8.50654C35.9551 8.50641 35.9551 8.50628 35.9551 8.50615C35.9551 8.50602 35.9551 8.50589 35.9551 8.50576C35.9551 8.50563 35.9551 8.5055 35.9551 8.50537C35.9551 8.50525 35.9551 8.50512 35.9551 8.50499C35.9551 8.50486 35.9551 8.50473 35.9551 8.50461C35.9551 8.50448 35.9551 8.50435 35.9551 8.50423C35.9551 8.5041 35.9551 8.50398 35.9551 8.50385C35.9551 8.50373 35.9551 8.5036 35.9551 8.50347C35.9551 8.50335 35.9551 8.50323 35.9551 8.5031C35.9551 8.50298 35.9551 8.50285 35.9551 8.50273C35.9551 8.50261 35.9551 8.50248 35.9551 8.50236C35.9551 8.50224 35.9551 8.50211 35.9551 8.50199C35.9551 8.50187 35.9551 8.50175 35.9551 8.50162C35.9551 8.5015 35.9551 8.50138 35.9551 8.50126C35.9551 8.50114 35.9551 8.50102 35.9551 8.5009C35.9551 8.50078 35.9551 8.50066 35.9551 8.50054C35.9551 8.50042 35.9551 8.5003 35.9551 8.50018C35.9551 8.50006 35.9551 8.49994 35.9551 8.49982C35.9551 8.4997 35.9551 8.49959 35.9551 8.49947C35.9551 8.49935 35.9551 8.49923 35.9551 8.49912C35.9551 8.499 35.9551 8.49888 35.9551 8.49877C35.9551 8.49865 35.9551 8.49853 35.9551 8.49842C35.9551 8.4983 35.9551 8.49819 35.9551 8.49807C35.9551 8.49796 35.9551 8.49784 35.9551 8.49773C35.9551 8.49761 35.9551 8.4975 35.9551 8.49738C35.9551 8.49727 35.9551 8.49716 35.9551 8.49704C35.9551 8.49693 35.9551 8.49682 35.9551 8.4967C35.9551 8.49659 35.9551 8.49648 35.9551 8.49637C35.9551 8.49625 35.9551 8.49614 35.9551 8.49603C35.9551 8.49592 35.9551 8.49581 35.9551 8.4957C35.9551 8.49559 35.9551 8.49548 35.9551 8.49537C35.9551 8.49526 35.9551 8.49515 35.9551 8.49504C35.9551 8.49493 35.9551 8.49482 35.9551 8.49471C35.9551 8.4946 35.9551 8.49449 35.9551 8.49439C35.9551 8.49428 35.9551 8.49417 35.9551 8.49406C35.9551 8.49396 35.9551 8.49385 35.9551 8.49374C35.9551 8.49364 35.9551 8.49353 35.9551 8.49342C35.9551 8.49332 35.9551 8.49321 35.9551 8.49311C35.9551 8.493 35.9551 8.4929 35.9551 8.49279C35.9551 8.49269 35.9551 8.49258 35.9551 8.49248C35.9551 8.49237 35.9551 8.49227 35.9551 8.49217C35.9551 8.49206 35.9551 8.49196 35.9551 8.49186C35.9551 8.49175 35.9551 8.49165 35.9551 8.49155C35.9551 8.49145 35.9551 8.49134 35.9551 8.49124C35.9551 8.49114 35.9551 8.49104 35.9551 8.49094C35.9551 8.49084 35.9551 8.49074 35.9551 8.49064C35.9551 8.49054 35.9551 8.49044 35.9551 8.49034C35.9551 8.49024 35.9551 8.49014 35.9551 8.49004C35.9551 8.48994 35.9551 8.48984 35.9551 8.48974C35.9551 8.48965 35.9551 8.48955 35.9551 8.48945C35.9551 8.48935 35.9551 8.48925 35.9551 8.48916C35.9551 8.48906 35.9551 8.48897 35.9551 8.48887C35.9551 8.48877 35.9551 8.48868 35.9551 8.48858C35.9551 8.48848 35.9551 8.48839 35.9551 8.48829C35.9551 8.4882 35.9551 8.4881 35.9551 8.48801C35.9551 8.48792 35.9551 8.48782 35.9551 8.48773C35.9551 8.48763 35.9551 8.48754 35.9551 8.48745C35.9551 8.48736 35.9551 8.48726 35.9551 8.48717C35.9551 8.48708 35.9551 8.48699 35.9551 8.48689C35.9551 8.4868 35.9551 8.48671 35.9551 8.48662C35.9551 8.48653 35.9551 8.48644 35.9551 8.48635C35.9551 8.48626 35.9551 8.48617 35.9551 8.48608C35.9551 8.48599 35.9551 8.4859 35.9551 8.48581C35.9551 8.48572 35.9551 8.48563 35.9551 8.48554C35.9551 8.48545 35.9551 8.48536 35.9551 8.48528C35.9551 8.48519 35.9551 8.4851 35.9551 8.48501C35.9551 8.48493 35.9551 8.48484 35.9551 8.48475C35.9551 8.48467 35.9551 8.48458 35.9551 8.48449C35.9551 8.48441 35.9551 8.48432 35.9551 8.48424C35.9551 8.48415 35.9551 8.48407 35.9551 8.48398C35.9551 8.4839 35.9551 8.48381 35.9551 8.48373C35.9551 8.48365 35.9551 8.48356 35.9551 8.48348C35.9551 8.4834 35.9551 8.48331 35.9551 8.48323C35.9551 8.48315 35.9551 8.48306 35.9551 8.48298C35.9551 8.4829 35.9551 8.48282 35.9551 8.48274C35.9551 8.48266 35.9551 8.48258 35.9551 8.4825C35.9551 8.48241 35.9551 8.48233 35.9551 8.48225C35.9551 8.48217 35.9551 8.48209 35.9551 8.48201C35.9551 8.48194 35.9551 8.48186 35.9551 8.48178C35.9551 8.4817 35.9551 8.48162 35.9551 8.48154C35.9551 8.48146 35.9551 8.48139 35.9551 8.48131C35.9551 8.48123 35.9551 8.48115 35.9551 8.48108C35.9551 8.481 35.9551 8.48092 35.9551 8.48085C35.9551 8.48077 35.9551 8.4807 35.9551 8.48062C35.9551 8.48055 35.9551 8.48047 35.9551 8.48039C35.9551 8.48032 35.9551 8.48025 35.9551 8.48017C35.9551 8.4801 35.9551 8.48002 35.9551 8.47995C35.9551 8.47988 35.9551 8.4798 35.9551 8.47973C35.9551 8.47966 35.9551 8.47958 35.9551 8.47951C35.9551 8.47944 35.9551 8.47937 35.9551 8.4793C35.9551 8.47923 35.9551 8.47915 35.9551 8.47908C35.9551 8.47901 35.9551 8.47894 35.9551 8.47887C35.9551 8.4788 35.9551 8.47873 35.9551 8.47866C35.9551 8.47859 35.9551 8.47852 35.9551 8.47845C35.9551 8.47838 35.9551 8.47832 35.9551 8.47825C35.9551 8.47818 35.9551 8.47811 35.9551 8.47804C35.9551 8.47797 35.9551 8.47791 35.9551 8.47784C35.9551 8.47777 35.9551 8.47771 35.9551 8.47764C35.9551 8.47757 35.9551 8.47751 35.9551 8.47744C35.9551 8.47738 35.9551 8.47731 35.9551 8.47725C35.9551 8.47718 35.9551 8.47712 35.9551 8.47705C35.9551 8.47699 35.9551 8.47692 35.9551 8.47686C35.9551 8.4768 35.9551 8.47673 35.9551 8.47667C35.9551 8.47661 35.9551 8.47654 35.9551 8.47648C35.9551 8.47642 35.9551 8.47636 35.9551 8.47629C35.9551 8.47623 35.9551 8.47617 35.9551 8.47611C35.9551 8.47605 35.9551 8.47599 35.9551 8.47593C35.9551 8.47587 35.9551 8.47581 35.9551 8.47575C35.9551 8.47569 35.9551 8.47563 35.9551 8.47557C35.9551 8.47551 35.9551 8.47545 35.9551 8.47539C35.9551 8.47533 35.9551 8.47527 35.9551 8.47522C35.9551 8.47516 35.9551 8.4751 35.9551 8.47504C35.9551 8.47499 35.9551 8.47493 35.9551 8.47487C35.9551 8.47482 35.9551 8.47476 35.9551 8.4747C35.9551 8.47465 35.9551 8.47459 35.9551 8.47454C35.9551 8.47448 35.9551 8.47443 35.9551 8.47437C35.9551 8.47432 35.9551 8.47426 35.9551 8.47421C35.9551 8.47415 35.9551 8.4741 35.9551 8.47405C35.9551 8.47399 35.9551 8.47394 35.9551 8.47389C35.9551 8.47384 35.9551 8.47378 35.9551 8.47373C35.9551 8.47368 35.9551 8.47363 35.9551 8.47358C35.9551 8.47352 35.9551 8.47347 35.9551 8.47342C35.9551 8.47337 35.9551 8.47332 35.9551 8.47327C35.9551 8.47322 35.9551 8.47317 35.9551 8.47312C35.9551 8.47307 35.9551 8.47302 35.9551 8.47297C35.9551 8.47293 35.9551 8.47288 35.9551 8.47283C35.9551 8.47278 35.9551 8.47273 35.9551 8.47269C35.9551 8.47264 35.9551 8.47259 35.9551 8.47254C35.9551 8.4725 35.9551 8.47245 35.9551 8.4724C35.9551 8.47236 35.9551 8.47231 35.9551 8.47227C35.9551 8.47222 35.9551 8.47218 35.9551 8.47213C35.9551 8.47209 35.9551 8.47204 35.9551 8.472C35.9551 8.47195 35.9551 8.47191 35.9551 8.47187C35.9551 8.47182 35.9551 8.47178 35.9551 8.47174C35.9551 8.47169 35.9551 8.47165 35.9551 8.47161C35.9551 8.47157 35.9551 8.47152 35.9551 8.47148C35.9551 8.47144 35.9551 8.4714 35.9551 8.47136C35.9551 8.47132 35.9551 8.47128 35.9551 8.47124C35.9551 8.4712 35.9551 8.47116 35.9551 8.47112C35.9551 8.47108 35.9551 8.47104 35.9551 8.471C35.9551 8.47096 35.9551 8.47092 35.9551 8.47088C35.9551 8.47084 35.9551 8.4708 35.9551 8.47077C35.9551 8.47073 35.9551 8.47069 35.9551 8.47065C35.9551 8.47062 35.9551 8.47058 35.9551 8.47054C35.9551 8.47051 35.9551 8.47047 35.9551 8.47044C35.9551 8.4704 35.9551 8.47036 35.9551 8.47033C35.9551 8.47029 35.9551 8.47026 35.9551 8.47023C35.9551 8.47019 35.9551 8.47016 35.9551 8.47012C35.9551 8.47009 35.9551 8.47006 35.9551 8.47002C35.9551 8.46999 35.9551 8.46996 35.9551 8.46992C35.9551 8.46989 35.9551 8.46986 35.9551 8.46983C35.9551 8.4698 35.9551 8.46976 35.9551 8.46973C35.9551 8.4697 35.9551 8.46967 35.9551 8.46964C35.9551 8.46961 35.9551 8.46958 35.9551 8.46955C35.9551 8.46952 35.9551 8.46949 35.9551 8.46946C35.9551 8.46943 35.9551 8.4694 35.9551 8.46937C35.9551 8.46934 35.9551 8.46932 35.9551 8.46929C35.9551 8.46926 35.9551 8.46923 35.9551 8.4692C35.9551 8.46918 35.9551 8.46915 35.9551 8.46912C35.9551 8.4691 35.9551 8.46907 35.9551 8.46904C35.9551 8.46902 35.9551 8.46899 35.9551 8.46897C35.9551 8.46894 35.9551 8.46892 35.9551 8.46889C35.9551 8.46887 35.9551 8.46884 35.9551 8.46882C35.9551 8.46879 35.9551 8.46877 35.9551 8.46875C35.9551 8.46872 35.9551 8.4687 35.9551 8.46868C35.9551 8.46866 35.9551 8.46863 35.9551 8.46861C35.9551 8.46859 35.9551 8.46857 35.9551 8.46855C35.9551 8.46852 35.9551 8.4685 35.9551 8.46848C35.9551 8.46846 35.9551 8.46844 35.9551 8.46842C35.9551 8.4684 35.9551 8.46838 35.9551 8.46836C35.9551 8.46834 35.9551 8.46832 35.9551 8.4683C35.9551 8.46828 35.9551 8.46827 35.9551 8.46825C35.9551 8.46823 35.9551 8.46821 35.9551 8.46819C35.9551 8.46818 35.9551 8.46816 35.9551 8.46814C35.9551 8.46813 35.9551 8.46811 35.9551 8.46809C35.9551 8.46808 35.9551 8.46806 35.9551 8.46805C35.9551 8.46803 35.9551 8.46801 35.9551 8.468C35.9551 8.46798 35.9551 8.46797 35.9551 8.46795C35.9551 8.46794 35.9551 8.46793 35.9551 8.46791C35.9551 8.4679 35.9551 8.46789 35.9551 8.46787C35.9551 8.46786 35.9551 8.46785 35.9551 8.46784C35.9551 8.46782 35.9551 8.46781 35.9551 8.4678C35.9551 8.46779 35.9551 8.46778 35.9551 8.46776C35.9551 8.46775 35.9551 8.46774 35.9551 8.46773C35.9551 8.46772 35.9551 8.46771 35.9551 8.4677C35.9551 8.46769 35.9551 8.46768 35.9551 8.46767C35.9551 8.46766 35.9551 8.46766 35.9551 8.46765C35.9551 8.46764 35.9551 8.46763 35.9551 8.46762C35.9551 8.46762 35.9551 8.46761 35.9551 8.4676C35.9551 8.46759 35.9551 8.46759 35.9551 8.46758C35.9551 8.46757 35.9551 8.46757 35.9551 8.46756C35.9551 8.46756 35.9551 8.46755 35.9551 8.46754C35.9551 8.46754 35.9551 8.46754 35.9551 8.46753C35.9551 8.46753 35.9551 8.46752 35.9551 8.46752C35.9551 8.46751 35.9551 8.46751 35.9551 8.46751C35.9551 8.4675 35.9551 8.4675 35.9551 8.4675C35.9551 8.4675 35.9551 8.46749 35.9551 8.46749C35.9551 8.46749 35.9551 8.46749 35.9551 8.46749C35.9551 8.46749 35.9551 8.46748 35.9551 8.46748C35.9551 8.46748 35.9551 8.46748 35.4551 8.46748C34.9551 8.46748 34.9551 8.46748 34.9551 8.46748C34.9551 8.46748 34.9551 8.46749 34.9551 8.46749C34.9551 8.46749 34.9551 8.46749 34.9551 8.46749C34.9551 8.46749 34.9551 8.4675 34.9551 8.4675C34.9551 8.4675 34.9551 8.4675 34.9551 8.46751C34.9551 8.46751 34.9551 8.46751 34.9551 8.46752C34.9551 8.46752 34.9551 8.46753 34.9551 8.46753C34.9551 8.46754 34.9551 8.46754 34.9551 8.46754C34.9551 8.46755 34.9551 8.46756 34.9551 8.46756C34.9551 8.46757 34.9551 8.46757 34.9551 8.46758C34.9551 8.46759 34.9551 8.46759 34.9551 8.4676C34.9551 8.46761 34.9551 8.46762 34.9551 8.46762C34.9551 8.46763 34.9551 8.46764 34.9551 8.46765C34.9551 8.46766 34.9551 8.46766 34.9551 8.46767C34.9551 8.46768 34.9551 8.46769 34.9551 8.4677C34.9551 8.46771 34.9551 8.46772 34.9551 8.46773C34.9551 8.46774 34.9551 8.46775 34.9551 8.46776C34.9551 8.46778 34.9551 8.46779 34.9551 8.4678C34.9551 8.46781 34.9551 8.46782 34.9551 8.46784C34.9551 8.46785 34.9551 8.46786 34.9551 8.46787C34.9551 8.46789 34.9551 8.4679 34.9551 8.46791C34.9551 8.46793 34.9551 8.46794 34.9551 8.46795C34.9551 8.46797 34.9551 8.46798 34.9551 8.468C34.9551 8.46801 34.9551 8.46803 34.9551 8.46805C34.9551 8.46806 34.9551 8.46808 34.9551 8.46809C34.9551 8.46811 34.9551 8.46813 34.9551 8.46814C34.9551 8.46816 34.9551 8.46818 34.9551 8.46819C34.9551 8.46821 34.9551 8.46823 34.9551 8.46825C34.9551 8.46827 34.9551 8.46828 34.9551 8.4683C34.9551 8.46832 34.9551 8.46834 34.9551 8.46836C34.9551 8.46838 34.9551 8.4684 34.9551 8.46842C34.9551 8.46844 34.9551 8.46846 34.9551 8.46848C34.9551 8.4685 34.9551 8.46852 34.9551 8.46855C34.9551 8.46857 34.9551 8.46859 34.9551 8.46861C34.9551 8.46863 34.9551 8.46866 34.9551 8.46868C34.9551 8.4687 34.9551 8.46872 34.9551 8.46875C34.9551 8.46877 34.9551 8.46879 34.9551 8.46882C34.9551 8.46884 34.9551 8.46887 34.9551 8.46889C34.9551 8.46892 34.9551 8.46894 34.9551 8.46897C34.9551 8.46899 34.9551 8.46902 34.9551 8.46904C34.9551 8.46907 34.9551 8.4691 34.9551 8.46912C34.9551 8.46915 34.9551 8.46918 34.9551 8.4692C34.9551 8.46923 34.9551 8.46926 34.9551 8.46929C34.9551 8.46932 34.9551 8.46934 34.9551 8.46937C34.9551 8.4694 34.9551 8.46943 34.9551 8.46946C34.9551 8.46949 34.9551 8.46952 34.9551 8.46955C34.9551 8.46958 34.9551 8.46961 34.9551 8.46964C34.9551 8.46967 34.9551 8.4697 34.9551 8.46973C34.9551 8.46976 34.9551 8.4698 34.9551 8.46983C34.9551 8.46986 34.9551 8.46989 34.9551 8.46992C34.9551 8.46996 34.9551 8.46999 34.9551 8.47002C34.9551 8.47006 34.9551 8.47009 34.9551 8.47012C34.9551 8.47016 34.9551 8.47019 34.9551 8.47023C34.9551 8.47026 34.9551 8.47029 34.9551 8.47033C34.9551 8.47036 34.9551 8.4704 34.9551 8.47044C34.9551 8.47047 34.9551 8.47051 34.9551 8.47054C34.9551 8.47058 34.9551 8.47062 34.9551 8.47065C34.9551 8.47069 34.9551 8.47073 34.9551 8.47077C34.9551 8.4708 34.9551 8.47084 34.9551 8.47088C34.9551 8.47092 34.9551 8.47096 34.9551 8.471C34.9551 8.47104 34.9551 8.47108 34.9551 8.47112C34.9551 8.47116 34.9551 8.4712 34.9551 8.47124C34.9551 8.47128 34.9551 8.47132 34.9551 8.47136C34.9551 8.4714 34.9551 8.47144 34.9551 8.47148C34.9551 8.47152 34.9551 8.47157 34.9551 8.47161C34.9551 8.47165 34.9551 8.47169 34.9551 8.47174C34.9551 8.47178 34.9551 8.47182 34.9551 8.47187C34.9551 8.47191 34.9551 8.47195 34.9551 8.472C34.9551 8.47204 34.9551 8.47209 34.9551 8.47213C34.9551 8.47218 34.9551 8.47222 34.9551 8.47227C34.9551 8.47231 34.9551 8.47236 34.9551 8.4724C34.9551 8.47245 34.9551 8.4725 34.9551 8.47254C34.9551 8.47259 34.9551 8.47264 34.9551 8.47269C34.9551 8.47273 34.9551 8.47278 34.9551 8.47283C34.9551 8.47288 34.9551 8.47293 34.9551 8.47297C34.9551 8.47302 34.9551 8.47307 34.9551 8.47312C34.9551 8.47317 34.9551 8.47322 34.9551 8.47327C34.9551 8.47332 34.9551 8.47337 34.9551 8.47342C34.9551 8.47347 34.9551 8.47352 34.9551 8.47358C34.9551 8.47363 34.9551 8.47368 34.9551 8.47373C34.9551 8.47378 34.9551 8.47384 34.9551 8.47389C34.9551 8.47394 34.9551 8.47399 34.9551 8.47405C34.9551 8.4741 34.9551 8.47415 34.9551 8.47421C34.9551 8.47426 34.9551 8.47432 34.9551 8.47437C34.9551 8.47443 34.9551 8.47448 34.9551 8.47454C34.9551 8.47459 34.9551 8.47465 34.9551 8.4747C34.9551 8.47476 34.9551 8.47482 34.9551 8.47487C34.9551 8.47493 34.9551 8.47499 34.9551 8.47504C34.9551 8.4751 34.9551 8.47516 34.9551 8.47522C34.9551 8.47527 34.9551 8.47533 34.9551 8.47539C34.9551 8.47545 34.9551 8.47551 34.9551 8.47557C34.9551 8.47563 34.9551 8.47569 34.9551 8.47575C34.9551 8.47581 34.9551 8.47587 34.9551 8.47593C34.9551 8.47599 34.9551 8.47605 34.9551 8.47611C34.9551 8.47617 34.9551 8.47623 34.9551 8.47629C34.9551 8.47636 34.9551 8.47642 34.9551 8.47648C34.9551 8.47654 34.9551 8.47661 34.9551 8.47667C34.9551 8.47673 34.9551 8.4768 34.9551 8.47686C34.9551 8.47692 34.9551 8.47699 34.9551 8.47705C34.9551 8.47712 34.9551 8.47718 34.9551 8.47725C34.9551 8.47731 34.9551 8.47738 34.9551 8.47744C34.9551 8.47751 34.9551 8.47757 34.9551 8.47764C34.9551 8.47771 34.9551 8.47777 34.9551 8.47784C34.9551 8.47791 34.9551 8.47797 34.9551 8.47804C34.9551 8.47811 34.9551 8.47818 34.9551 8.47825C34.9551 8.47832 34.9551 8.47838 34.9551 8.47845C34.9551 8.47852 34.9551 8.47859 34.9551 8.47866C34.9551 8.47873 34.9551 8.4788 34.9551 8.47887C34.9551 8.47894 34.9551 8.47901 34.9551 8.47908C34.9551 8.47915 34.9551 8.47923 34.9551 8.4793C34.9551 8.47937 34.9551 8.47944 34.9551 8.47951C34.9551 8.47958 34.9551 8.47966 34.9551 8.47973C34.9551 8.4798 34.9551 8.47988 34.9551 8.47995C34.9551 8.48002 34.9551 8.4801 34.9551 8.48017C34.9551 8.48025 34.9551 8.48032 34.9551 8.48039C34.9551 8.48047 34.9551 8.48055 34.9551 8.48062C34.9551 8.4807 34.9551 8.48077 34.9551 8.48085C34.9551 8.48092 34.9551 8.481 34.9551 8.48108C34.9551 8.48115 34.9551 8.48123 34.9551 8.48131C34.9551 8.48139 34.9551 8.48146 34.9551 8.48154C34.9551 8.48162 34.9551 8.4817 34.9551 8.48178C34.9551 8.48186 34.9551 8.48194 34.9551 8.48201C34.9551 8.48209 34.9551 8.48217 34.9551 8.48225C34.9551 8.48233 34.9551 8.48241 34.9551 8.4825C34.9551 8.48258 34.9551 8.48266 34.9551 8.48274C34.9551 8.48282 34.9551 8.4829 34.9551 8.48298C34.9551 8.48306 34.9551 8.48315 34.9551 8.48323C34.9551 8.48331 34.9551 8.4834 34.9551 8.48348C34.9551 8.48356 34.9551 8.48365 34.9551 8.48373C34.9551 8.48381 34.9551 8.4839 34.9551 8.48398C34.9551 8.48407 34.9551 8.48415 34.9551 8.48424C34.9551 8.48432 34.9551 8.48441 34.9551 8.48449C34.9551 8.48458 34.9551 8.48467 34.9551 8.48475C34.9551 8.48484 34.9551 8.48493 34.9551 8.48501C34.9551 8.4851 34.9551 8.48519 34.9551 8.48528C34.9551 8.48536 34.9551 8.48545 34.9551 8.48554C34.9551 8.48563 34.9551 8.48572 34.9551 8.48581C34.9551 8.4859 34.9551 8.48599 34.9551 8.48608C34.9551 8.48617 34.9551 8.48626 34.9551 8.48635C34.9551 8.48644 34.9551 8.48653 34.9551 8.48662C34.9551 8.48671 34.9551 8.4868 34.9551 8.48689C34.9551 8.48699 34.9551 8.48708 34.9551 8.48717C34.9551 8.48726 34.9551 8.48736 34.9551 8.48745C34.9551 8.48754 34.9551 8.48763 34.9551 8.48773C34.9551 8.48782 34.9551 8.48792 34.9551 8.48801C34.9551 8.4881 34.9551 8.4882 34.9551 8.48829C34.9551 8.48839 34.9551 8.48848 34.9551 8.48858C34.9551 8.48868 34.9551 8.48877 34.9551 8.48887C34.9551 8.48897 34.9551 8.48906 34.9551 8.48916C34.9551 8.48925 34.9551 8.48935 34.9551 8.48945C34.9551 8.48955 34.9551 8.48965 34.9551 8.48974C34.9551 8.48984 34.9551 8.48994 34.9551 8.49004C34.9551 8.49014 34.9551 8.49024 34.9551 8.49034C34.9551 8.49044 34.9551 8.49054 34.9551 8.49064C34.9551 8.49074 34.9551 8.49084 34.9551 8.49094C34.9551 8.49104 34.9551 8.49114 34.9551 8.49124C34.9551 8.49134 34.9551 8.49145 34.9551 8.49155C34.9551 8.49165 34.9551 8.49175 34.9551 8.49186C34.9551 8.49196 34.9551 8.49206 34.9551 8.49217C34.9551 8.49227 34.9551 8.49237 34.9551 8.49248C34.9551 8.49258 34.9551 8.49269 34.9551 8.49279C34.9551 8.4929 34.9551 8.493 34.9551 8.49311C34.9551 8.49321 34.9551 8.49332 34.9551 8.49342C34.9551 8.49353 34.9551 8.49364 34.9551 8.49374C34.9551 8.49385 34.9551 8.49396 34.9551 8.49406C34.9551 8.49417 34.9551 8.49428 34.9551 8.49439C34.9551 8.49449 34.9551 8.4946 34.9551 8.49471C34.9551 8.49482 34.9551 8.49493 34.9551 8.49504C34.9551 8.49515 34.9551 8.49526 34.9551 8.49537C34.9551 8.49548 34.9551 8.49559 34.9551 8.4957C34.9551 8.49581 34.9551 8.49592 34.9551 8.49603C34.9551 8.49614 34.9551 8.49625 34.9551 8.49637C34.9551 8.49648 34.9551 8.49659 34.9551 8.4967C34.9551 8.49682 34.9551 8.49693 34.9551 8.49704C34.9551 8.49716 34.9551 8.49727 34.9551 8.49738C34.9551 8.4975 34.9551 8.49761 34.9551 8.49773C34.9551 8.49784 34.9551 8.49796 34.9551 8.49807C34.9551 8.49819 34.9551 8.4983 34.9551 8.49842C34.9551 8.49853 34.9551 8.49865 34.9551 8.49877C34.9551 8.49888 34.9551 8.499 34.9551 8.49912C34.9551 8.49923 34.9551 8.49935 34.9551 8.49947C34.9551 8.49959 34.9551 8.4997 34.9551 8.49982C34.9551 8.49994 34.9551 8.50006 34.9551 8.50018C34.9551 8.5003 34.9551 8.50042 34.9551 8.50054C34.9551 8.50066 34.9551 8.50078 34.9551 8.5009C34.9551 8.50102 34.9551 8.50114 34.9551 8.50126C34.9551 8.50138 34.9551 8.5015 34.9551 8.50162C34.9551 8.50175 34.9551 8.50187 34.9551 8.50199C34.9551 8.50211 34.9551 8.50224 34.9551 8.50236C34.9551 8.50248 34.9551 8.50261 34.9551 8.50273C34.9551 8.50285 34.9551 8.50298 34.9551 8.5031C34.9551 8.50323 34.9551 8.50335 34.9551 8.50347C34.9551 8.5036 34.9551 8.50373 34.9551 8.50385C34.9551 8.50398 34.9551 8.5041 34.9551 8.50423C34.9551 8.50435 34.9551 8.50448 34.9551 8.50461C34.9551 8.50473 34.9551 8.50486 34.9551 8.50499C34.9551 8.50512 34.9551 8.50525 34.9551 8.50537C34.9551 8.5055 34.9551 8.50563 34.9551 8.50576C34.9551 8.50589 34.9551 8.50602 34.9551 8.50615C34.9551 8.50628 34.9551 8.50641 34.9551 8.50654C34.9551 8.50667 34.9551 8.5068 34.9551 8.50693C34.9551 8.50706 34.9551 8.50719 34.9551 8.50732C34.9551 8.50745 34.9551 8.50758 34.9551 8.50772C34.9551 8.50785 34.9551 8.50798 34.9551 8.50811C34.9551 8.50825 34.9551 8.50838 34.9551 8.50851C34.9551 8.50865 34.9551 8.50878 34.9551 8.50891C34.9551 8.50905 34.9551 8.50918 34.9551 8.50932C34.9551 8.50945 34.9551 8.50959 34.9551 8.50972C34.9551 8.50986 34.9551 8.50999 34.9551 8.51013C34.9551 8.51027 34.9551 8.5104 34.9551 8.51054C34.9551 8.51068 34.9551 8.51081 34.9551 8.51095C34.9551 8.51109 34.9551 8.51123 34.9551 8.51136C34.9551 8.5115 34.9551 8.51164 34.9551 8.51178C34.9551 8.51192 34.9551 8.51206 34.9551 8.5122C34.9551 8.51233 34.9551 8.51247 34.9551 8.51261C34.9551 8.51275 34.9551 8.51289 34.9551 8.51303C34.9551 8.51318 34.9551 8.51332 34.9551 8.51346C34.9551 8.5136 34.9551 8.51374 34.9551 8.51388C34.9551 8.51402 34.9551 8.51417 34.9551 8.51431C34.9551 8.51445 34.9551 8.5146 34.9551 8.51474C34.9551 8.51488 34.9551 8.51502 34.9551 8.51517C34.9551 8.51531 34.9551 8.51546 34.9551 8.5156C34.9551 8.51575 34.9551 8.51589 34.9551 8.51604C34.9551 8.51618 34.9551 8.51633 34.9551 8.51647C34.9551 8.51662 34.9551 8.51676 34.9551 8.51691C34.9551 8.51706 34.9551 8.5172 34.9551 8.51735C34.9551 8.5175 34.9551 8.51764 34.9551 8.51779C34.9551 8.51794 34.9551 8.51809 34.9551 8.51824C34.9551 8.51839 34.9551 8.51853 34.9551 8.51868C34.9551 8.51883 34.9551 8.51898 34.9551 8.51913C34.9551 8.51928 34.9551 8.51943 34.9551 8.51958C34.9551 8.51973 34.9551 8.51988 34.9551 8.52003C34.9551 8.52018 34.9551 8.52034 34.9551 8.52049C34.9551 8.52064 34.9551 8.52079 34.9551 8.52094C34.9551 8.5211 34.9551 8.52125 34.9551 8.5214C34.9551 8.52155 34.9551 8.52171 34.9551 8.52186C34.9551 8.52201 34.9551 8.52217 34.9551 8.52232C34.9551 8.52248 34.9551 8.52263 34.9551 8.52279C34.9551 8.52294 34.9551 8.5231 34.9551 8.52325C34.9551 8.52341 34.9551 8.52356 34.9551 8.52372C34.9551 8.52388 34.9551 8.52403 34.9551 8.52419C34.9551 8.52435 34.9551 8.5245 34.9551 8.52466C34.9551 8.52482 34.9551 8.52498 34.9551 8.52514C34.9551 8.52529 34.9551 8.52545 34.9551 8.52561C34.9551 8.52577 34.9551 8.52593 34.9551 8.52609C34.9551 8.52625 34.9551 8.52641 34.9551 8.52657C34.9551 8.52673 34.9551 8.52689 34.9551 8.52705C34.9551 8.52721 34.9551 8.52737 34.9551 8.52753C34.9551 8.52769 34.9551 8.52785 34.9551 8.52802C34.9551 8.52818 34.9551 8.52834 34.9551 8.5285C34.9551 8.52867 34.9551 8.52883 34.9551 8.52899C34.9551 8.52916 34.9551 8.52932 34.9551 8.52948C34.9551 8.52965 34.9551 8.52981 34.9551 8.52998C34.9551 8.53014 34.9551 8.53031 34.9551 8.53047C34.9551 8.53064 34.9551 8.5308 34.9551 8.53097C34.9551 8.53114 34.9551 8.5313 34.9551 8.53147H35.9551C35.9551 8.5313 35.9551 8.53114 35.9551 8.53097C35.9551 8.5308 35.9551 8.53064 35.9551 8.53047C35.9551 8.53031 35.9551 8.53014 35.9551 8.52998C35.9551 8.52981 35.9551 8.52965 35.9551 8.52948C35.9551 8.52932 35.9551 8.52916 35.9551 8.52899C35.9551 8.52883 35.9551 8.52867 35.9551 8.5285C35.9551 8.52834 35.9551 8.52818 35.9551 8.52802C35.9551 8.52785 35.9551 8.52769 35.9551 8.52753C35.9551 8.52737 35.9551 8.52721 35.9551 8.52705C35.9551 8.52689 35.9551 8.52673 35.9551 8.52657C35.9551 8.52641 35.9551 8.52625 35.9551 8.52609C35.9551 8.52593 35.9551 8.52577 35.9551 8.52561C35.9551 8.52545 35.9551 8.52529 35.9551 8.52514C35.9551 8.52498 35.9551 8.52482 35.9551 8.52466C35.9551 8.5245 35.9551 8.52435 35.9551 8.52419C35.9551 8.52403 35.9551 8.52388 35.9551 8.52372C35.9551 8.52356 35.9551 8.52341 35.9551 8.52325C35.9551 8.5231 35.9551 8.52294 35.9551 8.52279C35.9551 8.52263 35.9551 8.52248 35.9551 8.52232C35.9551 8.52217 35.9551 8.52201 35.9551 8.52186C35.9551 8.52171 35.9551 8.52155 35.9551 8.5214C35.9551 8.52125 35.9551 8.5211 35.9551 8.52094C35.9551 8.52079 35.9551 8.52064 35.9551 8.52049C35.9551 8.52034 35.9551 8.52018 35.9551 8.52003C35.9551 8.51988 35.9551 8.51973 35.9551 8.51958C35.9551 8.51943 35.9551 8.51928 35.9551 8.51913C35.9551 8.51898 35.9551 8.51883 35.9551 8.51868C35.9551 8.51853 35.9551 8.51839 35.9551 8.51824C35.9551 8.51809 35.9551 8.51794 35.9551 8.51779C35.9551 8.51764 35.9551 8.5175 35.9551 8.51735C35.9551 8.5172 35.9551 8.51706 35.9551 8.51691C35.9551 8.51676 35.9551 8.51662 35.9551 8.51647C35.9551 8.51633 35.9551 8.51618 35.9551 8.51604C35.9551 8.51589 35.9551 8.51575 35.9551 8.5156C35.9551 8.51546 35.9551 8.51531 35.9551 8.51517C35.9551 8.51502 35.9551 8.51488 35.9551 8.51474C35.9551 8.5146 35.9551 8.51445 35.9551 8.51431C35.9551 8.51417 35.9551 8.51402 35.9551 8.51388C35.9551 8.51374 35.9551 8.5136 35.9551 8.51346C35.9551 8.51332 35.9551 8.51318 35.9551 8.51303C35.9551 8.51289 35.9551 8.51275 35.9551 8.51261C35.9551 8.51247 35.9551 8.51233 35.9551 8.5122C35.9551 8.51206 35.9551 8.51192 35.9551 8.51178C35.9551 8.51164 35.9551 8.5115 35.9551 8.51136C35.9551 8.51123 35.9551 8.51109 35.9551 8.51095C35.9551 8.51081 35.9551 8.51068 35.9551 8.51054C35.9551 8.5104 35.9551 8.51027 35.9551 8.51013C35.9551 8.50999 35.9551 8.50986 35.9551 8.50972C35.9551 8.50959 35.9551 8.50945 35.9551 8.50932C35.9551 8.50918 35.9551 8.50905 35.9551 8.50891C35.9551 8.50878 35.9551 8.50865 35.9551 8.50851C35.9551 8.50838 35.9551 8.50825 35.9551 8.50811C35.9551 8.50798 35.9551 8.50785 35.9551 8.50772C35.9551 8.50758 35.9551 8.50745 35.9551 8.50732C35.9551 8.50719 35.9551 8.50706 35.9551 8.50693C35.9551 8.5068 35.9551 8.50667 35.9551 8.50654C35.9551 8.50641 35.9551 8.50628 35.9551 8.50615C35.9551 8.50602 35.9551 8.50589 35.9551 8.50576C35.9551 8.50563 35.9551 8.5055 35.9551 8.50537C35.9551 8.50525 35.9551 8.50512 35.9551 8.50499C35.9551 8.50486 35.9551 8.50473 35.9551 8.50461C35.9551 8.50448 35.9551 8.50435 35.9551 8.50423C35.9551 8.5041 35.9551 8.50398 35.9551 8.50385C35.9551 8.50373 35.9551 8.5036 35.9551 8.50347C35.9551 8.50335 35.9551 8.50323 35.9551 8.5031C35.9551 8.50298 35.9551 8.50285 35.9551 8.50273C35.9551 8.50261 35.9551 8.50248 35.9551 8.50236C35.9551 8.50224 35.9551 8.50211 35.9551 8.50199C35.9551 8.50187 35.9551 8.50175 35.9551 8.50162C35.9551 8.5015 35.9551 8.50138 35.9551 8.50126C35.9551 8.50114 35.9551 8.50102 35.9551 8.5009C35.9551 8.50078 35.9551 8.50066 35.9551 8.50054C35.9551 8.50042 35.9551 8.5003 35.9551 8.50018C35.9551 8.50006 35.9551 8.49994 35.9551 8.49982C35.9551 8.4997 35.9551 8.49959 35.9551 8.49947C35.9551 8.49935 35.9551 8.49923 35.9551 8.49912C35.9551 8.499 35.9551 8.49888 35.9551 8.49877C35.9551 8.49865 35.9551 8.49853 35.9551 8.49842C35.9551 8.4983 35.9551 8.49819 35.9551 8.49807C35.9551 8.49796 35.9551 8.49784 35.9551 8.49773C35.9551 8.49761 35.9551 8.4975 35.9551 8.49738C35.9551 8.49727 35.9551 8.49716 35.9551 8.49704C35.9551 8.49693 35.9551 8.49682 35.9551 8.4967C35.9551 8.49659 35.9551 8.49648 35.9551 8.49637C35.9551 8.49625 35.9551 8.49614 35.9551 8.49603C35.9551 8.49592 35.9551 8.49581 35.9551 8.4957C35.9551 8.49559 35.9551 8.49548 35.9551 8.49537C35.9551 8.49526 35.9551 8.49515 35.9551 8.49504C35.9551 8.49493 35.9551 8.49482 35.9551 8.49471C35.9551 8.4946 35.9551 8.49449 35.9551 8.49439C35.9551 8.49428 35.9551 8.49417 35.9551 8.49406C35.9551 8.49396 35.9551 8.49385 35.9551 8.49374C35.9551 8.49364 35.9551 8.49353 35.9551 8.49342C35.9551 8.49332 35.9551 8.49321 35.9551 8.49311C35.9551 8.493 35.9551 8.4929 35.9551 8.49279C35.9551 8.49269 35.9551 8.49258 35.9551 8.49248C35.9551 8.49237 35.9551 8.49227 35.9551 8.49217C35.9551 8.49206 35.9551 8.49196 35.9551 8.49186C35.9551 8.49175 35.9551 8.49165 35.9551 8.49155C35.9551 8.49145 35.9551 8.49134 35.9551 8.49124C35.9551 8.49114 35.9551 8.49104 35.9551 8.49094C35.9551 8.49084 35.9551 8.49074 35.9551 8.49064C35.9551 8.49054 35.9551 8.49044 35.9551 8.49034C35.9551 8.49024 35.9551 8.49014 35.9551 8.49004C35.9551 8.48994 35.9551 8.48984 35.9551 8.48974C35.9551 8.48965 35.9551 8.48955 35.9551 8.48945C35.9551 8.48935 35.9551 8.48925 35.9551 8.48916C35.9551 8.48906 35.9551 8.48897 35.9551 8.48887C35.9551 8.48877 35.9551 8.48868 35.9551 8.48858C35.9551 8.48848 35.9551 8.48839 35.9551 8.48829C35.9551 8.4882 35.9551 8.4881 35.9551 8.48801C35.9551 8.48792 35.9551 8.48782 35.9551 8.48773C35.9551 8.48763 35.9551 8.48754 35.9551 8.48745C35.9551 8.48736 35.9551 8.48726 35.9551 8.48717C35.9551 8.48708 35.9551 8.48699 35.9551 8.48689C35.9551 8.4868 35.9551 8.48671 35.9551 8.48662C35.9551 8.48653 35.9551 8.48644 35.9551 8.48635C35.9551 8.48626 35.9551 8.48617 35.9551 8.48608C35.9551 8.48599 35.9551 8.4859 35.9551 8.48581C35.9551 8.48572 35.9551 8.48563 35.9551 8.48554C35.9551 8.48545 35.9551 8.48536 35.9551 8.48528C35.9551 8.48519 35.9551 8.4851 35.9551 8.48501C35.9551 8.48493 35.9551 8.48484 35.9551 8.48475C35.9551 8.48467 35.9551 8.48458 35.9551 8.48449C35.9551 8.48441 35.9551 8.48432 35.9551 8.48424C35.9551 8.48415 35.9551 8.48407 35.9551 8.48398C35.9551 8.4839 35.9551 8.48381 35.9551 8.48373C35.9551 8.48365 35.9551 8.48356 35.9551 8.48348C35.9551 8.4834 35.9551 8.48331 35.9551 8.48323C35.9551 8.48315 35.9551 8.48306 35.9551 8.48298C35.9551 8.4829 35.9551 8.48282 35.9551 8.48274C35.9551 8.48266 35.9551 8.48258 35.9551 8.4825C35.9551 8.48241 35.9551 8.48233 35.9551 8.48225C35.9551 8.48217 35.9551 8.48209 35.9551 8.48201C35.9551 8.48194 35.9551 8.48186 35.9551 8.48178C35.9551 8.4817 35.9551 8.48162 35.9551 8.48154C35.9551 8.48146 35.9551 8.48139 35.9551 8.48131C35.9551 8.48123 35.9551 8.48115 35.9551 8.48108C35.9551 8.481 35.9551 8.48092 35.9551 8.48085C35.9551 8.48077 35.9551 8.4807 35.9551 8.48062C35.9551 8.48055 35.9551 8.48047 35.9551 8.48039C35.9551 8.48032 35.9551 8.48025 35.9551 8.48017C35.9551 8.4801 35.9551 8.48002 35.9551 8.47995C35.9551 8.47988 35.9551 8.4798 35.9551 8.47973C35.9551 8.47966 35.9551 8.47958 35.9551 8.47951C35.9551 8.47944 35.9551 8.47937 35.9551 8.4793C35.9551 8.47923 35.9551 8.47915 35.9551 8.47908C35.9551 8.47901 35.9551 8.47894 35.9551 8.47887C35.9551 8.4788 35.9551 8.47873 35.9551 8.47866C35.9551 8.47859 35.9551 8.47852 35.9551 8.47845C35.9551 8.47838 35.9551 8.47832 35.9551 8.47825C35.9551 8.47818 35.9551 8.47811 35.9551 8.47804C35.9551 8.47797 35.9551 8.47791 35.9551 8.47784C35.9551 8.47777 35.9551 8.47771 35.9551 8.47764C35.9551 8.47757 35.9551 8.47751 35.9551 8.47744C35.9551 8.47738 35.9551 8.47731 35.9551 8.47725C35.9551 8.47718 35.9551 8.47712 35.9551 8.47705C35.9551 8.47699 35.9551 8.47692 35.9551 8.47686C35.9551 8.4768 35.9551 8.47673 35.9551 8.47667C35.9551 8.47661 35.9551 8.47654 35.9551 8.47648C35.9551 8.47642 35.9551 8.47636 35.9551 8.47629C35.9551 8.47623 35.9551 8.47617 35.9551 8.47611C35.9551 8.47605 35.9551 8.47599 35.9551 8.47593C35.9551 8.47587 35.9551 8.47581 35.9551 8.47575C35.9551 8.47569 35.9551 8.47563 35.9551 8.47557C35.9551 8.47551 35.9551 8.47545 35.9551 8.47539C35.9551 8.47533 35.9551 8.47527 35.9551 8.47522C35.9551 8.47516 35.9551 8.4751 35.9551 8.47504C35.9551 8.47499 35.9551 8.47493 35.9551 8.47487C35.9551 8.47482 35.9551 8.47476 35.9551 8.4747C35.9551 8.47465 35.9551 8.47459 35.9551 8.47454C35.9551 8.47448 35.9551 8.47443 35.9551 8.47437C35.9551 8.47432 35.9551 8.47426 35.9551 8.47421C35.9551 8.47415 35.9551 8.4741 35.9551 8.47405C35.9551 8.47399 35.9551 8.47394 35.9551 8.47389C35.9551 8.47384 35.9551 8.47378 35.9551 8.47373C35.9551 8.47368 35.9551 8.47363 35.9551 8.47358C35.9551 8.47352 35.9551 8.47347 35.9551 8.47342C35.9551 8.47337 35.9551 8.47332 35.9551 8.47327C35.9551 8.47322 35.9551 8.47317 35.9551 8.47312C35.9551 8.47307 35.9551 8.47302 35.9551 8.47297C35.9551 8.47293 35.9551 8.47288 35.9551 8.47283C35.9551 8.47278 35.9551 8.47273 35.9551 8.47269C35.9551 8.47264 35.9551 8.47259 35.9551 8.47254C35.9551 8.4725 35.9551 8.47245 35.9551 8.4724C35.9551 8.47236 35.9551 8.47231 35.9551 8.47227C35.9551 8.47222 35.9551 8.47218 35.9551 8.47213C35.9551 8.47209 35.9551 8.47204 35.9551 8.472C35.9551 8.47195 35.9551 8.47191 35.9551 8.47187C35.9551 8.47182 35.9551 8.47178 35.9551 8.47174C35.9551 8.47169 35.9551 8.47165 35.9551 8.47161C35.9551 8.47157 35.9551 8.47152 35.9551 8.47148C35.9551 8.47144 35.9551 8.4714 35.9551 8.47136C35.9551 8.47132 35.9551 8.47128 35.9551 8.47124C35.9551 8.4712 35.9551 8.47116 35.9551 8.47112C35.9551 8.47108 35.9551 8.47104 35.9551 8.471C35.9551 8.47096 35.9551 8.47092 35.9551 8.47088C35.9551 8.47084 35.9551 8.4708 35.9551 8.47077C35.9551 8.47073 35.9551 8.47069 35.9551 8.47065C35.9551 8.47062 35.9551 8.47058 35.9551 8.47054C35.9551 8.47051 35.9551 8.47047 35.9551 8.47044C35.9551 8.4704 35.9551 8.47036 35.9551 8.47033C35.9551 8.47029 35.9551 8.47026 35.9551 8.47023C35.9551 8.47019 35.9551 8.47016 35.9551 8.47012C35.9551 8.47009 35.9551 8.47006 35.9551 8.47002C35.9551 8.46999 35.9551 8.46996 35.9551 8.46992C35.9551 8.46989 35.9551 8.46986 35.9551 8.46983C35.9551 8.4698 35.9551 8.46976 35.9551 8.46973C35.9551 8.4697 35.9551 8.46967 35.9551 8.46964C35.9551 8.46961 35.9551 8.46958 35.9551 8.46955C35.9551 8.46952 35.9551 8.46949 35.9551 8.46946C35.9551 8.46943 35.9551 8.4694 35.9551 8.46937C35.9551 8.46934 35.9551 8.46932 35.9551 8.46929C35.9551 8.46926 35.9551 8.46923 35.9551 8.4692C35.9551 8.46918 35.9551 8.46915 35.9551 8.46912C35.9551 8.4691 35.9551 8.46907 35.9551 8.46904C35.9551 8.46902 35.9551 8.46899 35.9551 8.46897C35.9551 8.46894 35.9551 8.46892 35.9551 8.46889C35.9551 8.46887 35.9551 8.46884 35.9551 8.46882C35.9551 8.46879 35.9551 8.46877 35.9551 8.46875C35.9551 8.46872 35.9551 8.4687 35.9551 8.46868C35.9551 8.46866 35.9551 8.46863 35.9551 8.46861C35.9551 8.46859 35.9551 8.46857 35.9551 8.46855C35.9551 8.46852 35.9551 8.4685 35.9551 8.46848C35.9551 8.46846 35.9551 8.46844 35.9551 8.46842C35.9551 8.4684 35.9551 8.46838 35.9551 8.46836C35.9551 8.46834 35.9551 8.46832 35.9551 8.4683C35.9551 8.46828 35.9551 8.46827 35.9551 8.46825C35.9551 8.46823 35.9551 8.46821 35.9551 8.46819C35.9551 8.46818 35.9551 8.46816 35.9551 8.46814C35.9551 8.46813 35.9551 8.46811 35.9551 8.46809C35.9551 8.46808 35.9551 8.46806 35.9551 8.46805C35.9551 8.46803 35.9551 8.46801 35.9551 8.468C35.9551 8.46798 35.9551 8.46797 35.9551 8.46795C35.9551 8.46794 35.9551 8.46793 35.9551 8.46791C35.9551 8.4679 35.9551 8.46789 35.9551 8.46787C35.9551 8.46786 35.9551 8.46785 35.9551 8.46784C35.9551 8.46782 35.9551 8.46781 35.9551 8.4678C35.9551 8.46779 35.9551 8.46778 35.9551 8.46776C35.9551 8.46775 35.9551 8.46774 35.9551 8.46773C35.9551 8.46772 35.9551 8.46771 35.9551 8.4677C35.9551 8.46769 35.9551 8.46768 35.9551 8.46767C35.9551 8.46766 35.9551 8.46766 35.9551 8.46765C35.9551 8.46764 35.9551 8.46763 35.9551 8.46762C35.9551 8.46762 35.9551 8.46761 35.9551 8.4676C35.9551 8.46759 35.9551 8.46759 35.9551 8.46758C35.9551 8.46757 35.9551 8.46757 35.9551 8.46756C35.9551 8.46756 35.9551 8.46755 35.9551 8.46754C35.9551 8.46754 35.9551 8.46754 35.9551 8.46753C35.9551 8.46753 35.9551 8.46752 35.9551 8.46752C35.9551 8.46751 35.9551 8.46751 35.9551 8.46751C35.9551 8.4675 35.9551 8.4675 35.9551 8.4675C35.9551 8.4675 35.9551 8.46749 35.9551 8.46749C35.9551 8.46749 35.9551 8.46749 35.9551 8.46749C35.9551 8.46749 35.9551 8.46748 35.9551 8.46748C35.9551 8.46748 35.9551 8.46748 35.4551 8.46748C34.9551 8.46748 34.9551 8.46748 34.9551 8.46748C34.9551 8.46748 34.9551 8.46749 34.9551 8.46749C34.9551 8.46749 34.9551 8.46749 34.9551 8.46749C34.9551 8.46749 34.9551 8.4675 34.9551 8.4675C34.9551 8.4675 34.9551 8.4675 34.9551 8.46751C34.9551 8.46751 34.9551 8.46751 34.9551 8.46752C34.9551 8.46752 34.9551 8.46753 34.9551 8.46753C34.9551 8.46754 34.9551 8.46754 34.9551 8.46754C34.9551 8.46755 34.9551 8.46756 34.9551 8.46756C34.9551 8.46757 34.9551 8.46757 34.9551 8.46758C34.9551 8.46759 34.9551 8.46759 34.9551 8.4676C34.9551 8.46761 34.9551 8.46762 34.9551 8.46762C34.9551 8.46763 34.9551 8.46764 34.9551 8.46765C34.9551 8.46766 34.9551 8.46766 34.9551 8.46767C34.9551 8.46768 34.9551 8.46769 34.9551 8.4677C34.9551 8.46771 34.9551 8.46772 34.9551 8.46773C34.9551 8.46774 34.9551 8.46775 34.9551 8.46776C34.9551 8.46778 34.9551 8.46779 34.9551 8.4678C34.9551 8.46781 34.9551 8.46782 34.9551 8.46784C34.9551 8.46785 34.9551 8.46786 34.9551 8.46787C34.9551 8.46789 34.9551 8.4679 34.9551 8.46791C34.9551 8.46793 34.9551 8.46794 34.9551 8.46795C34.9551 8.46797 34.9551 8.46798 34.9551 8.468C34.9551 8.46801 34.9551 8.46803 34.9551 8.46805C34.9551 8.46806 34.9551 8.46808 34.9551 8.46809C34.9551 8.46811 34.9551 8.46813 34.9551 8.46814C34.9551 8.46816 34.9551 8.46818 34.9551 8.46819C34.9551 8.46821 34.9551 8.46823 34.9551 8.46825C34.9551 8.46827 34.9551 8.46828 34.9551 8.4683C34.9551 8.46832 34.9551 8.46834 34.9551 8.46836C34.9551 8.46838 34.9551 8.4684 34.9551 8.46842C34.9551 8.46844 34.9551 8.46846 34.9551 8.46848C34.9551 8.4685 34.9551 8.46852 34.9551 8.46855C34.9551 8.46857 34.9551 8.46859 34.9551 8.46861C34.9551 8.46863 34.9551 8.46866 34.9551 8.46868C34.9551 8.4687 34.9551 8.46872 34.9551 8.46875C34.9551 8.46877 34.9551 8.46879 34.9551 8.46882C34.9551 8.46884 34.9551 8.46887 34.9551 8.46889C34.9551 8.46892 34.9551 8.46894 34.9551 8.46897C34.9551 8.46899 34.9551 8.46902 34.9551 8.46904C34.9551 8.46907 34.9551 8.4691 34.9551 8.46912C34.9551 8.46915 34.9551 8.46918 34.9551 8.4692C34.9551 8.46923 34.9551 8.46926 34.9551 8.46929C34.9551 8.46932 34.9551 8.46934 34.9551 8.46937C34.9551 8.4694 34.9551 8.46943 34.9551 8.46946C34.9551 8.46949 34.9551 8.46952 34.9551 8.46955C34.9551 8.46958 34.9551 8.46961 34.9551 8.46964C34.9551 8.46967 34.9551 8.4697 34.9551 8.46973C34.9551 8.46976 34.9551 8.4698 34.9551 8.46983C34.9551 8.46986 34.9551 8.46989 34.9551 8.46992C34.9551 8.46996 34.9551 8.46999 34.9551 8.47002C34.9551 8.47006 34.9551 8.47009 34.9551 8.47012C34.9551 8.47016 34.9551 8.47019 34.9551 8.47023C34.9551 8.47026 34.9551 8.47029 34.9551 8.47033C34.9551 8.47036 34.9551 8.4704 34.9551 8.47044C34.9551 8.47047 34.9551 8.47051 34.9551 8.47054C34.9551 8.47058 34.9551 8.47062 34.9551 8.47065C34.9551 8.47069 34.9551 8.47073 34.9551 8.47077C34.9551 8.4708 34.9551 8.47084 34.9551 8.47088C34.9551 8.47092 34.9551 8.47096 34.9551 8.471C34.9551 8.47104 34.9551 8.47108 34.9551 8.47112C34.9551 8.47116 34.9551 8.4712 34.9551 8.47124C34.9551 8.47128 34.9551 8.47132 34.9551 8.47136C34.9551 8.4714 34.9551 8.47144 34.9551 8.47148C34.9551 8.47152 34.9551 8.47157 34.9551 8.47161C34.9551 8.47165 34.9551 8.47169 34.9551 8.47174C34.9551 8.47178 34.9551 8.47182 34.9551 8.47187C34.9551 8.47191 34.9551 8.47195 34.9551 8.472C34.9551 8.47204 34.9551 8.47209 34.9551 8.47213C34.9551 8.47218 34.9551 8.47222 34.9551 8.47227C34.9551 8.47231 34.9551 8.47236 34.9551 8.4724C34.9551 8.47245 34.9551 8.4725 34.9551 8.47254C34.9551 8.47259 34.9551 8.47264 34.9551 8.47269C34.9551 8.47273 34.9551 8.47278 34.9551 8.47283C34.9551 8.47288 34.9551 8.47293 34.9551 8.47297C34.9551 8.47302 34.9551 8.47307 34.9551 8.47312C34.9551 8.47317 34.9551 8.47322 34.9551 8.47327C34.9551 8.47332 34.9551 8.47337 34.9551 8.47342C34.9551 8.47347 34.9551 8.47352 34.9551 8.47358C34.9551 8.47363 34.9551 8.47368 34.9551 8.47373C34.9551 8.47378 34.9551 8.47384 34.9551 8.47389C34.9551 8.47394 34.9551 8.47399 34.9551 8.47405C34.9551 8.4741 34.9551 8.47415 34.9551 8.47421C34.9551 8.47426 34.9551 8.47432 34.9551 8.47437C34.9551 8.47443 34.9551 8.47448 34.9551 8.47454C34.9551 8.47459 34.9551 8.47465 34.9551 8.4747C34.9551 8.47476 34.9551 8.47482 34.9551 8.47487C34.9551 8.47493 34.9551 8.47499 34.9551 8.47504C34.9551 8.4751 34.9551 8.47516 34.9551 8.47522C34.9551 8.47527 34.9551 8.47533 34.9551 8.47539C34.9551 8.47545 34.9551 8.47551 34.9551 8.47557C34.9551 8.47563 34.9551 8.47569 34.9551 8.47575C34.9551 8.47581 34.9551 8.47587 34.9551 8.47593C34.9551 8.47599 34.9551 8.47605 34.9551 8.47611C34.9551 8.47617 34.9551 8.47623 34.9551 8.47629C34.9551 8.47636 34.9551 8.47642 34.9551 8.47648C34.9551 8.47654 34.9551 8.47661 34.9551 8.47667C34.9551 8.47673 34.9551 8.4768 34.9551 8.47686C34.9551 8.47692 34.9551 8.47699 34.9551 8.47705C34.9551 8.47712 34.9551 8.47718 34.9551 8.47725C34.9551 8.47731 34.9551 8.47738 34.9551 8.47744C34.9551 8.47751 34.9551 8.47757 34.9551 8.47764C34.9551 8.47771 34.9551 8.47777 34.9551 8.47784C34.9551 8.47791 34.9551 8.47797 34.9551 8.47804C34.9551 8.47811 34.9551 8.47818 34.9551 8.47825C34.9551 8.47832 34.9551 8.47838 34.9551 8.47845C34.9551 8.47852 34.9551 8.47859 34.9551 8.47866C34.9551 8.47873 34.9551 8.4788 34.9551 8.47887C34.9551 8.47894 34.9551 8.47901 34.9551 8.47908C34.9551 8.47915 34.9551 8.47923 34.9551 8.4793C34.9551 8.47937 34.9551 8.47944 34.9551 8.47951C34.9551 8.47958 34.9551 8.47966 34.9551 8.47973C34.9551 8.4798 34.9551 8.47988 34.9551 8.47995C34.9551 8.48002 34.9551 8.4801 34.9551 8.48017C34.9551 8.48025 34.9551 8.48032 34.9551 8.48039C34.9551 8.48047 34.9551 8.48055 34.9551 8.48062C34.9551 8.4807 34.9551 8.48077 34.9551 8.48085C34.9551 8.48092 34.9551 8.481 34.9551 8.48108C34.9551 8.48115 34.9551 8.48123 34.9551 8.48131C34.9551 8.48139 34.9551 8.48146 34.9551 8.48154C34.9551 8.48162 34.9551 8.4817 34.9551 8.48178C34.9551 8.48186 34.9551 8.48194 34.9551 8.48201C34.9551 8.48209 34.9551 8.48217 34.9551 8.48225C34.9551 8.48233 34.9551 8.48241 34.9551 8.4825C34.9551 8.48258 34.9551 8.48266 34.9551 8.48274C34.9551 8.48282 34.9551 8.4829 34.9551 8.48298C34.9551 8.48306 34.9551 8.48315 34.9551 8.48323C34.9551 8.48331 34.9551 8.4834 34.9551 8.48348C34.9551 8.48356 34.9551 8.48365 34.9551 8.48373C34.9551 8.48381 34.9551 8.4839 34.9551 8.48398C34.9551 8.48407 34.9551 8.48415 34.9551 8.48424C34.9551 8.48432 34.9551 8.48441 34.9551 8.48449C34.9551 8.48458 34.9551 8.48467 34.9551 8.48475C34.9551 8.48484 34.9551 8.48493 34.9551 8.48501C34.9551 8.4851 34.9551 8.48519 34.9551 8.48528C34.9551 8.48536 34.9551 8.48545 34.9551 8.48554C34.9551 8.48563 34.9551 8.48572 34.9551 8.48581C34.9551 8.4859 34.9551 8.48599 34.9551 8.48608C34.9551 8.48617 34.9551 8.48626 34.9551 8.48635C34.9551 8.48644 34.9551 8.48653 34.9551 8.48662C34.9551 8.48671 34.9551 8.4868 34.9551 8.48689C34.9551 8.48699 34.9551 8.48708 34.9551 8.48717C34.9551 8.48726 34.9551 8.48736 34.9551 8.48745C34.9551 8.48754 34.9551 8.48763 34.9551 8.48773C34.9551 8.48782 34.9551 8.48792 34.9551 8.48801C34.9551 8.4881 34.9551 8.4882 34.9551 8.48829C34.9551 8.48839 34.9551 8.48848 34.9551 8.48858C34.9551 8.48868 34.9551 8.48877 34.9551 8.48887C34.9551 8.48897 34.9551 8.48906 34.9551 8.48916C34.9551 8.48925 34.9551 8.48935 34.9551 8.48945C34.9551 8.48955 34.9551 8.48965 34.9551 8.48974C34.9551 8.48984 34.9551 8.48994 34.9551 8.49004C34.9551 8.49014 34.9551 8.49024 34.9551 8.49034C34.9551 8.49044 34.9551 8.49054 34.9551 8.49064C34.9551 8.49074 34.9551 8.49084 34.9551 8.49094C34.9551 8.49104 34.9551 8.49114 34.9551 8.49124C34.9551 8.49134 34.9551 8.49145 34.9551 8.49155C34.9551 8.49165 34.9551 8.49175 34.9551 8.49186C34.9551 8.49196 34.9551 8.49206 34.9551 8.49217C34.9551 8.49227 34.9551 8.49237 34.9551 8.49248C34.9551 8.49258 34.9551 8.49269 34.9551 8.49279C34.9551 8.4929 34.9551 8.493 34.9551 8.49311C34.9551 8.49321 34.9551 8.49332 34.9551 8.49342C34.9551 8.49353 34.9551 8.49364 34.9551 8.49374C34.9551 8.49385 34.9551 8.49396 34.9551 8.49406C34.9551 8.49417 34.9551 8.49428 34.9551 8.49439C34.9551 8.49449 34.9551 8.4946 34.9551 8.49471C34.9551 8.49482 34.9551 8.49493 34.9551 8.49504C34.9551 8.49515 34.9551 8.49526 34.9551 8.49537C34.9551 8.49548 34.9551 8.49559 34.9551 8.4957C34.9551 8.49581 34.9551 8.49592 34.9551 8.49603C34.9551 8.49614 34.9551 8.49625 34.9551 8.49637C34.9551 8.49648 34.9551 8.49659 34.9551 8.4967C34.9551 8.49682 34.9551 8.49693 34.9551 8.49704C34.9551 8.49716 34.9551 8.49727 34.9551 8.49738C34.9551 8.4975 34.9551 8.49761 34.9551 8.49773C34.9551 8.49784 34.9551 8.49796 34.9551 8.49807C34.9551 8.49819 34.9551 8.4983 34.9551 8.49842C34.9551 8.49853 34.9551 8.49865 34.9551 8.49877C34.9551 8.49888 34.9551 8.499 34.9551 8.49912C34.9551 8.49923 34.9551 8.49935 34.9551 8.49947C34.9551 8.49959 34.9551 8.4997 34.9551 8.49982C34.9551 8.49994 34.9551 8.50006 34.9551 8.50018C34.9551 8.5003 34.9551 8.50042 34.9551 8.50054C34.9551 8.50066 34.9551 8.50078 34.9551 8.5009C34.9551 8.50102 34.9551 8.50114 34.9551 8.50126C34.9551 8.50138 34.9551 8.5015 34.9551 8.50162C34.9551 8.50175 34.9551 8.50187 34.9551 8.50199C34.9551 8.50211 34.9551 8.50224 34.9551 8.50236C34.9551 8.50248 34.9551 8.50261 34.9551 8.50273C34.9551 8.50285 34.9551 8.50298 34.9551 8.5031C34.9551 8.50323 34.9551 8.50335 34.9551 8.50347C34.9551 8.5036 34.9551 8.50373 34.9551 8.50385C34.9551 8.50398 34.9551 8.5041 34.9551 8.50423C34.9551 8.50435 34.9551 8.50448 34.9551 8.50461C34.9551 8.50473 34.9551 8.50486 34.9551 8.50499C34.9551 8.50512 34.9551 8.50525 34.9551 8.50537C34.9551 8.5055 34.9551 8.50563 34.9551 8.50576C34.9551 8.50589 34.9551 8.50602 34.9551 8.50615C34.9551 8.50628 34.9551 8.50641 34.9551 8.50654C34.9551 8.50667 34.9551 8.5068 34.9551 8.50693C34.9551 8.50706 34.9551 8.50719 34.9551 8.50732C34.9551 8.50745 34.9551 8.50758 34.9551 8.50772C34.9551 8.50785 34.9551 8.50798 34.9551 8.50811C34.9551 8.50825 34.9551 8.50838 34.9551 8.50851C34.9551 8.50865 34.9551 8.50878 34.9551 8.50891C34.9551 8.50905 34.9551 8.50918 34.9551 8.50932C34.9551 8.50945 34.9551 8.50959 34.9551 8.50972C34.9551 8.50986 34.9551 8.50999 34.9551 8.51013C34.9551 8.51027 34.9551 8.5104 34.9551 8.51054C34.9551 8.51068 34.9551 8.51081 34.9551 8.51095C34.9551 8.51109 34.9551 8.51123 34.9551 8.51136C34.9551 8.5115 34.9551 8.51164 34.9551 8.51178C34.9551 8.51192 34.9551 8.51206 34.9551 8.5122C34.9551 8.51233 34.9551 8.51247 34.9551 8.51261C34.9551 8.51275 34.9551 8.51289 34.9551 8.51303C34.9551 8.51318 34.9551 8.51332 34.9551 8.51346C34.9551 8.5136 34.9551 8.51374 34.9551 8.51388C34.9551 8.51402 34.9551 8.51417 34.9551 8.51431C34.9551 8.51445 34.9551 8.5146 34.9551 8.51474C34.9551 8.51488 34.9551 8.51502 34.9551 8.51517C34.9551 8.51531 34.9551 8.51546 34.9551 8.5156C34.9551 8.51575 34.9551 8.51589 34.9551 8.51604C34.9551 8.51618 34.9551 8.51633 34.9551 8.51647C34.9551 8.51662 34.9551 8.51676 34.9551 8.51691C34.9551 8.51706 34.9551 8.5172 34.9551 8.51735C34.9551 8.5175 34.9551 8.51764 34.9551 8.51779C34.9551 8.51794 34.9551 8.51809 34.9551 8.51824C34.9551 8.51839 34.9551 8.51853 34.9551 8.51868C34.9551 8.51883 34.9551 8.51898 34.9551 8.51913C34.9551 8.51928 34.9551 8.51943 34.9551 8.51958C34.9551 8.51973 34.9551 8.51988 34.9551 8.52003C34.9551 8.52018 34.9551 8.52034 34.9551 8.52049C34.9551 8.52064 34.9551 8.52079 34.9551 8.52094C34.9551 8.5211 34.9551 8.52125 34.9551 8.5214C34.9551 8.52155 34.9551 8.52171 34.9551 8.52186C34.9551 8.52201 34.9551 8.52217 34.9551 8.52232C34.9551 8.52248 34.9551 8.52263 34.9551 8.52279C34.9551 8.52294 34.9551 8.5231 34.9551 8.52325C34.9551 8.52341 34.9551 8.52356 34.9551 8.52372C34.9551 8.52388 34.9551 8.52403 34.9551 8.52419C34.9551 8.52435 34.9551 8.5245 34.9551 8.52466C34.9551 8.52482 34.9551 8.52498 34.9551 8.52514C34.9551 8.52529 34.9551 8.52545 34.9551 8.52561C34.9551 8.52577 34.9551 8.52593 34.9551 8.52609C34.9551 8.52625 34.9551 8.52641 34.9551 8.52657C34.9551 8.52673 34.9551 8.52689 34.9551 8.52705C34.9551 8.52721 34.9551 8.52737 34.9551 8.52753C34.9551 8.52769 34.9551 8.52785 34.9551 8.52802C34.9551 8.52818 34.9551 8.52834 34.9551 8.5285C34.9551 8.52867 34.9551 8.52883 34.9551 8.52899C34.9551 8.52916 34.9551 8.52932 34.9551 8.52948C34.9551 8.52965 34.9551 8.52981 34.9551 8.52998C34.9551 8.53014 34.9551 8.53031 34.9551 8.53047C34.9551 8.53064 34.9551 8.5308 34.9551 8.53097C34.9551 8.53114 34.9551 8.5313 34.9551 8.53147H35.9551ZM35.9551 8.53147V1.70629H34.9551V8.53147H35.9551ZM35.4551 2.20629H42.9551V1.20629H35.4551V2.20629ZM42.4551 1.70629V13.1385H43.4551V1.70629H42.4551ZM43.3264 12.8037L40.173 9.30577L39.4303 9.97535L42.5837 13.4733L43.3264 12.8037ZM40.1554 9.28719C39.8851 9.01659 39.4994 8.88461 39.2051 8.88461V9.88461C39.2154 9.88461 39.2587 9.88923 39.3175 9.91277C39.3741 9.93545 39.4196 9.96553 39.4479 9.99393L40.1554 9.28719ZM39.2051 8.88461C39.0264 8.88461 38.8335 8.91376 38.657 8.98443C38.4865 9.05268 38.2785 9.18228 38.1612 9.41714L39.0558 9.86398C39.0394 9.89677 39.0206 9.91379 39.0142 9.91886C39.0086 9.92342 39.0115 9.91966 39.0287 9.91277C39.0653 9.89813 39.1281 9.88461 39.2051 9.88461V8.88461ZM38.2371 9.30577L35.0837 12.8037L35.8264 13.4733L38.9799 9.97535L38.2371 9.30577ZM35.9551 13.1385V8.53147H34.9551V13.1385H35.9551ZM54.1199 7.09301H44.6596V8.09301H54.1199V7.09301ZM45.1596 7.59301V1.70629H44.1596V7.59301H45.1596ZM44.6596 2.20629H54.1199V1.20629H44.6596V2.20629ZM53.6199 1.70629V7.59301H54.6199V1.70629H53.6199ZM33.2505 1.70629V7.67832H34.2505V1.70629H33.2505ZM33.7505 7.17832H28.8074V8.17832H33.7505V7.17832ZM29.3074 7.67832C29.3074 7.50018 29.2785 7.30138 29.2214 7.11551C29.1664 6.93667 29.0708 6.72272 28.9054 6.55712L28.1979 7.26386C28.1976 7.26355 28.2074 7.27371 28.2223 7.30156C28.2367 7.32859 28.2518 7.36483 28.2655 7.40932C28.2936 7.50072 28.3074 7.60052 28.3074 7.67832H29.3074ZM28.9054 6.55712L26.8599 4.50956L26.1525 5.21631L28.1979 7.26386L28.9054 6.55712ZM26.8599 4.50956C26.613 4.26231 26.3087 4.11538 25.98 4.0971C25.6545 4.079 25.3489 4.18943 25.0981 4.37777L25.6985 5.17747C25.7885 5.10987 25.8665 5.09233 25.9245 5.09556C25.9793 5.09861 26.0586 5.1223 26.1525 5.21631L26.8599 4.50956ZM25.0932 4.38146L23.9853 5.23461L24.5954 6.02693L25.7033 5.17378L25.0932 4.38146ZM24.7903 5.63077V1.70629H23.7903V5.63077H24.7903ZM24.2903 2.20629H33.7505V1.20629H24.2903V2.20629ZM5.44063 15.5103L7.827 15.1691L7.68543 14.1792L5.29907 14.5204L5.44063 15.5103ZM7.8776 15.1592C8.33089 15.0457 8.86387 14.6913 9.00836 14.1128L8.03816 13.8705C8.01219 13.9744 7.86336 14.1319 7.63483 14.1891L7.8776 15.1592ZM9.01825 14.0622C9.17589 12.9576 9.65142 11.8409 10.3723 10.8788L9.57198 10.2792C8.75874 11.3646 8.21154 12.6368 8.02828 13.921L9.01825 14.0622ZM10.4194 10.8024C10.6601 10.3205 10.6601 9.81374 10.4194 9.33182L9.52482 9.77867C9.62501 9.97926 9.62501 10.155 9.52482 10.3556L10.4194 10.8024ZM10.366 9.24729L8.83194 7.28505L8.04413 7.90096L9.57822 9.8632L10.366 9.24729ZM8.79177 7.94638L9.81449 6.9226L9.10703 6.21586L8.0843 7.23963L8.79177 7.94638ZM9.15484 6.96472L11.0298 8.41507L11.6417 7.62409L9.76668 6.17374L9.15484 6.96472ZM10.982 8.37295C11.2248 8.616 11.556 8.71154 11.8471 8.71154C12.1383 8.71154 12.4694 8.616 12.7122 8.37295L12.0048 7.66621C11.9919 7.6791 11.9395 7.71154 11.8471 7.71154C11.7547 7.71154 11.7024 7.6791 11.6895 7.66621L10.982 8.37295ZM12.6207 8.44529C13.6874 7.78821 14.8255 7.30188 16.0362 7.0595L15.8399 6.07896C14.4937 6.34847 13.2455 6.88592 12.0962 7.59387L12.6207 8.44529ZM16.0594 7.05427C16.6028 6.91829 16.9902 6.49973 17.1102 5.89936L16.1295 5.70344C16.079 5.95622 15.9551 6.04954 15.8166 6.08419L16.0594 7.05427ZM17.1148 5.87204L17.4557 3.48323L16.4658 3.34195L16.1249 5.73076L17.1148 5.87204ZM16.9608 3.91259H18.4096V2.91259H16.9608V3.91259ZM17.9146 3.48323L18.2555 5.87204L19.2455 5.73076L18.9046 3.34195L17.9146 3.48323ZM18.2654 5.92255C18.3786 6.37575 18.7325 6.9095 19.311 7.05427L19.5537 6.08419C19.4504 6.05833 19.2929 5.90956 19.2356 5.68025L18.2654 5.92255ZM19.3342 7.0595C20.5463 7.30216 21.6788 7.78794 22.6491 8.43547L23.2042 7.60369C22.1291 6.88619 20.8753 6.34819 19.5305 6.07896L19.3342 7.0595ZM22.6265 8.41943C23.1901 8.84258 23.8571 8.68227 24.2269 8.43547L23.6719 7.60369C23.6131 7.64291 23.5275 7.67529 23.4406 7.68041C23.3604 7.68513 23.2897 7.66689 23.2269 7.61973L22.6265 8.41943ZM24.2468 8.42152L26.207 6.97117L25.6122 6.16729L23.652 7.61764L24.2468 8.42152ZM25.5559 6.9226L26.5786 7.94638L27.2861 7.23963L26.2634 6.21586L25.5559 6.9226ZM26.5301 7.29601L25.0813 9.25825L25.8857 9.85224L27.3346 7.89001L26.5301 7.29601ZM25.1298 9.20187C24.656 9.67614 24.7176 10.3907 25.0833 10.8788L25.8836 10.2792C25.738 10.0849 25.7996 9.94624 25.8372 9.90862L25.1298 9.20187ZM25.0673 10.8562C25.7142 11.8275 26.1996 12.9614 26.442 14.1749L27.4227 13.979C27.1537 12.633 26.6164 11.378 25.8996 10.3019L25.0673 10.8562ZM26.4473 14.1981C26.5829 14.7414 27.0008 15.1295 27.6012 15.2497L27.7976 14.2692C27.5457 14.2187 27.4522 14.095 27.4175 13.9558L26.4473 14.1981ZM27.6286 15.2544L30.015 15.5957L30.1565 14.6057L27.7702 14.2645L27.6286 15.2544ZM29.5858 15.1007V16.551H30.5858V15.1007H29.5858ZM30.015 16.0561L27.6286 16.3973L27.7702 17.3873L30.1565 17.046L30.015 16.0561ZM27.578 16.4073C27.1247 16.5207 26.5917 16.8751 26.4473 17.4537L27.4175 17.696C27.4434 17.592 27.5923 17.4345 27.8208 17.3773L27.578 16.4073ZM26.442 17.4769C26.1996 18.6904 25.7142 19.8242 25.0673 20.7956L25.8996 21.3499C26.6164 20.2737 27.1537 19.0187 27.4227 17.6728L26.442 17.4769ZM25.0362 20.8493C24.7955 21.3312 24.7955 21.838 25.0362 22.3199L25.9308 21.8731C25.8306 21.6725 25.8306 21.4967 25.9308 21.2962L25.0362 20.8493ZM25.0813 22.3935L26.5301 24.3557L27.3346 23.7617L25.8857 21.7995L25.0813 22.3935ZM26.5786 23.7054L25.5559 24.7291L26.2634 25.4359L27.2861 24.4121L26.5786 23.7054ZM26.207 24.6806L24.2468 23.2302L23.652 24.0341L25.6122 25.4845L26.207 24.6806ZM24.3031 23.2788C23.829 22.8042 23.1144 22.866 22.6265 23.2323L23.2269 24.032C23.4207 23.8865 23.5584 23.9482 23.5957 23.9855L24.3031 23.2788ZM22.6491 23.2163C21.6788 23.8638 20.5463 24.3496 19.3342 24.5922L19.5305 25.5728C20.8753 25.3036 22.1291 24.7656 23.2042 24.0481L22.6491 23.2163ZM19.311 24.5975C18.7676 24.7335 18.3802 25.152 18.2602 25.7524L19.2408 25.9483C19.2913 25.6955 19.4153 25.6022 19.5537 25.5676L19.311 24.5975ZM18.2559 25.7771L17.915 28.0806L18.9042 28.227L19.2451 25.9235L18.2559 25.7771ZM18.4096 27.6538H16.9608V28.6538H18.4096V27.6538ZM17.4557 28.0832L17.1148 25.6944L16.1249 25.8357L16.4658 28.2245L17.4557 28.0832ZM17.105 25.6439C16.9918 25.1907 16.6379 24.6569 16.0594 24.5122L15.8166 25.4822C15.92 25.5081 16.0775 25.6569 16.1348 25.8862L17.105 25.6439ZM16.0362 24.5069C14.8241 24.2643 13.6916 23.7785 12.7213 23.131L12.1662 23.9627C13.2413 24.6802 14.4951 25.2182 15.8399 25.4875L16.0362 24.5069ZM12.6675 23.0997C12.1857 22.8586 11.679 22.8586 11.1972 23.0997L11.6448 23.994C11.8448 23.8939 12.0199 23.8939 12.2199 23.994L12.6675 23.0997ZM11.1236 23.1449L9.16337 24.5953L9.75815 25.3991L11.7184 23.9488L11.1236 23.1449ZM9.81449 24.6438L8.79177 23.6201L8.0843 24.3268L9.10703 25.3506L9.81449 24.6438ZM8.83383 24.279L10.2827 22.402L9.4911 21.791L8.04224 23.6679L8.83383 24.279ZM10.2406 22.4499C10.4855 22.2047 10.5787 21.8718 10.5787 21.574C10.5787 21.2719 10.4847 20.9514 10.287 20.6876L9.48675 21.2872C9.54477 21.3647 9.57866 21.4708 9.57866 21.574C9.57866 21.6813 9.54394 21.7323 9.53316 21.7431L10.2406 22.4499ZM10.3031 20.7103C9.6539 19.7355 9.17615 18.6106 9.01825 17.5042L8.02828 17.6455C8.21128 18.9278 8.75626 20.1917 9.47074 21.2646L10.3031 20.7103ZM9.00836 17.4537C8.87267 16.9103 8.45477 16.5222 7.85437 16.402L7.65806 17.3826C7.90994 17.433 8.0034 17.5568 8.03816 17.696L9.00836 17.4537ZM7.827 16.3973L5.44063 16.0561L5.29907 17.046L7.68543 17.3873L7.827 16.3973ZM5.86985 16.551V15.0154H4.86985V16.551H5.86985Z" fill="black" mask="url(#path-2-outside-1_1_429)"/>
<path d="M17.6424 22.8584C21.5307 22.8584 24.7106 19.6749 24.7106 15.7832C24.7106 11.8915 21.5307 8.70801 17.6424 8.70801C13.7541 8.70801 10.5742 11.8915 10.5742 15.7832C10.5742 19.6749 13.7541 22.8584 17.6424 22.8584ZM17.6424 10.9143C20.3166 10.9143 22.506 13.1056 22.506 15.7832C22.506 18.4607 20.3166 20.6521 17.6424 20.6521C14.9682 20.6521 12.7788 18.4607 12.7788 15.7832C12.7788 13.1056 14.9682 10.9143 17.6424 10.9143Z" fill="black" stroke="black" stroke-width="0.5"/>
</g>
<defs>
<clipPath id="clip0_1_429">
<rect width="60" height="61" fill="white"/>
</clipPath>
</defs>
</svg>
