<svg width="16" height="16" viewBox="0 0 16 14" fill="none" xmlns="http://www.w3.org/2000/svg">
<path d="M14.1192 1.4576C13.323 0.66111 12.2673 0.176849 11.1441 0.0928904C10.021 0.0089315 8.90507 0.330851 7.99923 1.0001C7.04497 0.290333 5.85722 -0.031512 4.67517 0.0993826C3.49312 0.230277 2.40456 0.804188 1.62871 1.70554C0.85286 2.6069 0.447347 3.76875 0.493831 4.95712C0.540315 6.14549 1.03534 7.27211 1.87923 8.11011L7.46673 13.6976C7.53645 13.7679 7.6194 13.8237 7.7108 13.8618C7.80219 13.8999 7.90022 13.9195 7.99923 13.9195C8.09824 13.9195 8.19627 13.8999 8.28766 13.8618C8.37906 13.8237 8.46201 13.7679 8.53173 13.6976L14.1192 8.11011C14.5562 7.6734 14.9029 7.15486 15.1394 6.58413C15.3759 6.0134 15.4976 5.40165 15.4976 4.78385C15.4976 4.16606 15.3759 3.55431 15.1394 2.98358C14.9029 2.41285 14.5562 1.89431 14.1192 1.4576ZM13.0617 7.05261L7.99923 12.1076L2.93673 7.05261C2.49061 6.60463 2.18671 6.03489 2.06315 5.41486C1.93959 4.79483 2.00188 4.15212 2.24219 3.56735C2.48251 2.98258 2.89015 2.4818 3.41399 2.12782C3.93783 1.77384 4.55453 1.58243 5.18673 1.5776C6.03131 1.57967 6.84055 1.91686 7.43673 2.5151C7.50645 2.5854 7.5894 2.6412 7.6808 2.67927C7.77219 2.71735 7.87022 2.73695 7.96923 2.73695C8.06824 2.73695 8.16627 2.71735 8.25766 2.67927C8.34906 2.6412 8.43201 2.5854 8.50173 2.5151C9.11547 1.98327 9.90835 1.70446 10.7199 1.73512C11.5314 1.76578 12.301 2.10362 12.8729 2.68025C13.4447 3.25688 13.7762 4.02923 13.8001 4.841C13.824 5.65276 13.5386 6.4433 13.0017 7.05261H13.0617Z" fill="black"/>
</svg>
