<svg width="35" height="34" viewBox="0 0 35 34" fill="none" xmlns="http://www.w3.org/2000/svg">
<circle cx="17.334" cy="17" r="17" fill="#F0F0F0"/>
<path d="M14.4178 13.3756C14.5579 13.3756 14.6948 13.4172 14.8113 13.495C14.9278 13.5728 15.0186 13.6834 15.0722 13.8129C15.1258 13.9423 15.1398 14.0847 15.1125 14.2221C15.0852 14.3595 15.0177 14.4858 14.9187 14.5848C14.8196 14.6839 14.6934 14.7513 14.556 14.7787C14.4186 14.806 14.2762 14.792 14.1467 14.7384C14.0173 14.6847 13.9067 14.594 13.8288 14.4775C13.751 14.361 13.7095 14.224 13.7095 14.0839C13.7095 13.8961 13.7841 13.7159 13.9169 13.5831C14.0498 13.4502 14.2299 13.3756 14.4178 13.3756ZM11.7025 14.8041C11.714 14.3143 11.8057 13.8298 11.974 13.3697C12.1241 12.9761 12.3577 12.6196 12.6588 12.3249C12.9511 12.0224 13.3083 11.7902 13.7036 11.6461C14.1624 11.4727 14.6475 11.3788 15.1379 11.3687C15.7636 11.3333 15.9643 11.3333 17.5699 11.3333C19.1754 11.3333 19.3761 11.3333 20.0018 11.3687C20.4923 11.3788 20.9773 11.4727 21.4362 11.6461C21.8307 11.7917 22.1877 12.0236 22.481 12.3249C22.7836 12.6172 23.0157 12.9745 23.1598 13.3697C23.3333 13.8286 23.4271 14.3137 23.4372 14.8041C23.4727 15.4298 23.4727 15.6305 23.4727 17.236C23.4727 18.8416 23.4727 19.0423 23.4372 19.668C23.4271 20.1584 23.3333 20.6435 23.1598 21.1023C23.0157 21.4976 22.7836 21.8548 22.481 22.1471C22.1877 22.4484 21.8307 22.6804 21.4362 22.826C20.9773 22.9994 20.4923 23.0932 20.0018 23.1034C19.3761 23.1388 19.1754 23.1388 17.5699 23.1388C15.9643 23.1388 15.7636 23.1388 15.1379 23.1034C14.6475 23.0932 14.1624 22.9994 13.7036 22.826C13.3083 22.6818 12.9511 22.4497 12.6588 22.1471C12.3564 21.8535 12.1226 21.4968 11.974 21.1023C11.8057 20.6423 11.714 20.1577 11.7025 19.668C11.7025 19.0423 11.6671 18.8416 11.6671 17.236C11.6671 15.6305 11.6671 15.4298 11.7025 14.8041ZM12.765 19.5971C12.7693 19.9718 12.8372 20.3431 12.9657 20.6951C13.06 20.9519 13.2113 21.1841 13.4084 21.3739C13.5999 21.569 13.8315 21.72 14.0872 21.8166C14.4392 21.9451 14.8105 22.013 15.1852 22.0173C15.7754 22.0468 15.9938 22.0527 17.5463 22.0527C19.0987 22.0527 19.3171 22.0527 19.9074 22.0173C20.2964 22.0246 20.6838 21.9647 21.0525 21.8402C21.297 21.7387 21.518 21.588 21.7018 21.3975C21.8977 21.2079 22.0472 20.9756 22.1386 20.7187C22.2827 20.3616 22.3627 19.982 22.3747 19.5971C22.3747 19.0069 22.4102 18.7885 22.4102 17.236C22.4102 15.6836 22.4102 15.4652 22.3747 14.8749C22.3721 14.4919 22.3022 14.1122 22.1681 13.7534C22.0642 13.5042 21.9047 13.2821 21.7018 13.1041C21.5225 12.9011 21.3009 12.7399 21.0525 12.6319C20.6927 12.502 20.3135 12.4342 19.931 12.4312C19.3407 12.4312 19.1223 12.3958 17.5699 12.3958C16.0174 12.3958 15.799 12.3958 15.2088 12.4312C14.8341 12.4355 14.4628 12.5033 14.1109 12.6319C13.8426 12.7314 13.6019 12.8933 13.4084 13.1041C13.215 13.2854 13.0638 13.5071 12.9657 13.7534C12.8345 14.1128 12.7666 14.4923 12.765 14.8749C12.7355 15.4652 12.7296 15.6836 12.7296 17.236C12.7296 18.7885 12.7355 19.0069 12.765 19.5971ZM17.5699 14.2079C18.1685 14.2091 18.7534 14.3877 19.2506 14.7211C19.7478 15.0545 20.135 15.5279 20.3633 16.0813C20.5916 16.6347 20.6507 17.2434 20.5332 17.8304C20.4157 18.4174 20.1268 18.9564 19.7031 19.3793C19.2794 19.8022 18.7398 20.09 18.1526 20.2064C17.5653 20.3228 16.9568 20.2624 16.4038 20.0331C15.8508 19.8037 15.3782 19.4156 15.0458 18.9178C14.7133 18.4199 14.5359 17.8347 14.5359 17.236C14.5351 16.8377 14.6131 16.4431 14.7653 16.0749C14.9176 15.7068 15.1411 15.3724 15.4231 15.091C15.7051 14.8096 16.0399 14.5867 16.4083 14.4351C16.7768 14.2836 17.1715 14.2063 17.5699 14.2079ZM17.5699 19.2017C17.9586 19.2017 18.3387 19.0864 18.6619 18.8704C18.9852 18.6544 19.2371 18.3474 19.3859 17.9882C19.5347 17.6291 19.5736 17.2338 19.4977 16.8526C19.4219 16.4713 19.2347 16.121 18.9598 15.8461C18.6849 15.5712 18.3346 15.384 17.9534 15.3082C17.5721 15.2323 17.1768 15.2713 16.8177 15.42C16.4585 15.5688 16.1515 15.8207 15.9355 16.144C15.7195 16.4672 15.6043 16.8473 15.6043 17.236C15.6043 17.4942 15.6551 17.7498 15.7539 17.9882C15.8527 18.2267 15.9974 18.4434 16.18 18.6259C16.3625 18.8085 16.5792 18.9532 16.8177 19.052C17.0561 19.1508 17.3117 19.2017 17.5699 19.2017Z" fill="black"/>
</svg>
