<svg width="20" height="20" viewBox="0 0 20 20" fill="none" xmlns="http://www.w3.org/2000/svg">
<path d="M5.49548 4.55365C5.68158 4.55365 5.86349 4.60884 6.01822 4.71222C6.17296 4.81561 6.29356 4.96256 6.36477 5.13449C6.43599 5.30642 6.45462 5.49561 6.41831 5.67812C6.38201 5.86064 6.29239 6.0283 6.16081 6.15988C6.02922 6.29147 5.86156 6.38109 5.67905 6.41739C5.49653 6.4537 5.30734 6.43506 5.13541 6.36385C4.96348 6.29263 4.81653 6.17203 4.71315 6.0173C4.60976 5.86257 4.55457 5.68066 4.55457 5.49456C4.55457 5.24502 4.65371 5.00569 4.83016 4.82924C5.00661 4.65278 5.24594 4.55365 5.49548 4.55365ZM1.88867 6.45115C1.90391 5.80059 2.02576 5.15693 2.24935 4.54581C2.44872 4.02293 2.75902 3.54945 3.15889 3.15797C3.54716 2.75607 4.02174 2.44772 4.54673 2.25627C5.15624 2.02587 5.80061 1.90124 6.45207 1.88774C7.28321 1.8407 7.5498 1.8407 9.68253 1.8407C11.8153 1.8407 12.0818 1.8407 12.913 1.88774C13.5644 1.90124 14.2088 2.02587 14.8183 2.25627C15.3424 2.44966 15.8165 2.75774 16.2062 3.15797C16.6081 3.54624 16.9164 4.02082 17.1079 4.54581C17.3383 5.15532 17.4629 5.79969 17.4764 6.45115C17.5234 7.28229 17.5234 7.54888 17.5234 9.68161C17.5234 11.8143 17.5234 12.0809 17.4764 12.9121C17.4629 13.5635 17.3383 14.2079 17.1079 14.8174C16.9164 15.3424 16.6081 15.817 16.2062 16.2052C15.8165 16.6055 15.3424 16.9136 14.8183 17.1069C14.2088 17.3373 13.5644 17.462 12.913 17.4755C12.0818 17.5225 11.8153 17.5225 9.68253 17.5225C7.5498 17.5225 7.28321 17.5225 6.45207 17.4755C5.80061 17.462 5.15624 17.3373 4.54673 17.1069C4.02174 16.9155 3.54716 16.6071 3.15889 16.2052C2.75725 15.8152 2.44667 15.3413 2.24935 14.8174C2.02576 14.2063 1.90391 13.5626 1.88867 12.9121C1.88867 12.0809 1.84162 11.8143 1.84162 9.68161C1.84162 7.54888 1.84162 7.28229 1.88867 6.45115ZM3.30003 12.818C3.30574 13.3157 3.39588 13.8088 3.56662 14.2764C3.69181 14.6176 3.8929 14.9259 4.15469 15.1781C4.40901 15.4372 4.7167 15.6379 5.05639 15.7662C5.52394 15.9369 6.01708 16.027 6.5148 16.0327C7.29889 16.0719 7.58901 16.0798 9.65117 16.0798C11.7133 16.0798 12.0034 16.0798 12.7875 16.0327C13.3043 16.0424 13.8189 15.9628 14.3087 15.7975C14.6334 15.6627 14.927 15.4625 15.1712 15.2094C15.4314 14.9576 15.63 14.649 15.7514 14.3077C15.9428 13.8335 16.049 13.3292 16.065 12.818C16.065 12.0339 16.1121 11.7438 16.1121 9.68161C16.1121 7.61945 16.1121 7.32933 16.065 6.54524C16.0615 6.03641 15.9686 5.53216 15.7906 5.05547C15.6526 4.72451 15.4407 4.4295 15.1712 4.19297C14.9329 3.92338 14.6385 3.70926 14.3087 3.5657C13.8307 3.39323 13.327 3.30309 12.8189 3.29911C12.0348 3.29911 11.7447 3.25206 9.68253 3.25206C7.62037 3.25206 7.33026 3.25206 6.54617 3.29911C6.04845 3.30482 5.55531 3.39496 5.08776 3.5657C4.73144 3.69794 4.41164 3.91293 4.15469 4.19297C3.89774 4.43383 3.69697 4.7283 3.56662 5.05547C3.39235 5.53293 3.30216 6.03698 3.30003 6.54524C3.26083 7.32933 3.25298 7.61945 3.25298 9.68161C3.25298 11.7438 3.26083 12.0339 3.30003 12.818ZM9.68253 5.65922C10.4777 5.66077 11.2547 5.898 11.9151 6.34092C12.5756 6.78385 13.0899 7.4126 13.3931 8.14773C13.6964 8.88286 13.7749 9.69138 13.6188 10.4711C13.4627 11.2509 13.079 11.9669 12.5162 12.5286C11.9533 13.0904 11.2366 13.4727 10.4565 13.6273C9.67649 13.7818 8.86812 13.7017 8.13358 13.3971C7.39904 13.0924 6.77129 12.5768 6.32966 11.9155C5.88802 11.2542 5.6523 10.4768 5.6523 9.68161C5.65126 9.15243 5.75486 8.62826 5.95712 8.13927C6.15939 7.65027 6.45634 7.20608 6.83089 6.83226C7.20544 6.45844 7.65021 6.16235 8.1396 5.96104C8.62899 5.75973 9.15335 5.65715 9.68253 5.65922ZM9.68253 12.2926C10.1989 12.2926 10.7038 12.1395 11.1331 11.8526C11.5625 11.5657 11.8972 11.1579 12.0948 10.6808C12.2924 10.2037 12.3441 9.67871 12.2434 9.17222C12.1426 8.66573 11.894 8.20049 11.5288 7.83534C11.1636 7.47018 10.6984 7.2215 10.1919 7.12075C9.68542 7.02001 9.16044 7.07171 8.68333 7.26934C8.20623 7.46696 7.79845 7.80162 7.51154 8.231C7.22464 8.66038 7.07151 9.1652 7.07151 9.68161C7.07151 10.0245 7.13904 10.364 7.27026 10.6808C7.40147 10.9976 7.5938 11.2854 7.83626 11.5279C8.07871 11.7703 8.36655 11.9627 8.68333 12.0939C9.00012 12.2251 9.33964 12.2926 9.68253 12.2926Z" fill="black"/>
</svg>
