<svg width="17" height="17" viewBox="0 0 17 17" fill="none" xmlns="http://www.w3.org/2000/svg">
<path d="M15.1441 0.841022H1.8616C1.71229 0.838948 1.56404 0.866306 1.4253 0.921535C1.28657 0.976763 1.16007 1.05878 1.05304 1.1629C0.946009 1.26702 0.860535 1.39121 0.801501 1.52836C0.742467 1.66552 0.71103 1.81296 0.708984 1.96227V15.4016C0.71103 15.5509 0.742467 15.6983 0.801501 15.8355C0.860535 15.9727 0.946009 16.0968 1.05304 16.201C1.16007 16.3051 1.28657 16.3871 1.4253 16.4423C1.56404 16.4976 1.71229 16.5249 1.8616 16.5228H15.1441C15.2934 16.5249 15.4417 16.4976 15.5804 16.4423C15.7191 16.3871 15.8456 16.3051 15.9527 16.201C16.0597 16.0968 16.1452 15.9727 16.2042 15.8355C16.2632 15.6983 16.2947 15.5509 16.2967 15.4016V1.96227C16.2947 1.81296 16.2632 1.66552 16.2042 1.52836C16.1452 1.39121 16.0597 1.26702 15.9527 1.1629C15.8456 1.05878 15.7191 0.976763 15.5804 0.921535C15.4417 0.866306 15.2934 0.838948 15.1441 0.841022ZM5.43705 13.9667H3.08478V6.90988H5.43705V13.9667ZM4.26092 5.92193C3.93651 5.92193 3.62539 5.79306 3.396 5.56367C3.1666 5.33428 3.03773 5.02316 3.03773 4.69875C3.03773 4.37434 3.1666 4.06322 3.396 3.83383C3.62539 3.60444 3.93651 3.47557 4.26092 3.47557C4.43318 3.45603 4.60762 3.4731 4.77283 3.52566C4.93804 3.57821 5.09028 3.66507 5.21959 3.78055C5.3489 3.89602 5.45236 4.03751 5.5232 4.19574C5.59404 4.35397 5.63066 4.52538 5.63066 4.69875C5.63066 4.87211 5.59404 5.04352 5.5232 5.20176C5.45236 5.35999 5.3489 5.50147 5.21959 5.61695C5.09028 5.73242 4.93804 5.81928 4.77283 5.87184C4.60762 5.9244 4.43318 5.94147 4.26092 5.92193ZM13.9209 13.9667H11.5686V10.1795C11.5686 9.23079 11.2315 8.61136 10.3768 8.61136C10.1123 8.6133 9.85477 8.69626 9.63887 8.84908C9.42297 9.00189 9.25909 9.21721 9.16933 9.46602C9.10797 9.65031 9.08138 9.8444 9.09092 10.0384V13.9589H6.73864C6.73864 13.9589 6.73864 7.545 6.73864 6.90204H9.09092V7.89784C9.30461 7.52705 9.6154 7.22158 9.98983 7.01433C10.3643 6.80708 10.7881 6.7059 11.2158 6.7217C12.784 6.7217 13.9209 7.73318 13.9209 9.90511V13.9667Z" fill="black"/>
</svg>
