<svg width="34" height="34" viewBox="0 0 34 34" fill="none" xmlns="http://www.w3.org/2000/svg">
<circle cx="17" cy="17" r="17" fill="#F0F0F0"/>
<path d="M22.201 11.3333H12.2017C12.0893 11.3318 11.9777 11.3524 11.8732 11.3939C11.7688 11.4355 11.6736 11.4973 11.593 11.5757C11.5124 11.654 11.4481 11.7475 11.4036 11.8508C11.3592 11.954 11.3355 12.065 11.334 12.1774V22.2948C11.3355 22.4072 11.3592 22.5182 11.4036 22.6214C11.4481 22.7247 11.5124 22.8182 11.593 22.8966C11.6736 22.975 11.7688 23.0367 11.8732 23.0783C11.9777 23.1199 12.0893 23.1404 12.2017 23.1389H22.201C22.3134 23.1404 22.425 23.1199 22.5294 23.0783C22.6339 23.0367 22.7291 22.975 22.8097 22.8966C22.8903 22.8182 22.9546 22.7247 22.9991 22.6214C23.0435 22.5182 23.0672 22.4072 23.0687 22.2948V12.1774C23.0672 12.065 23.0435 11.954 22.9991 11.8508C22.9546 11.7475 22.8903 11.654 22.8097 11.5757C22.7291 11.4973 22.6339 11.4355 22.5294 11.3939C22.425 11.3524 22.3134 11.3318 22.201 11.3333ZM14.8934 21.2146H13.1225V15.9021H14.8934V21.2146ZM14.0079 15.1583C13.7637 15.1583 13.5295 15.0613 13.3568 14.8886C13.1841 14.7159 13.0871 14.4817 13.0871 14.2375C13.0871 13.9933 13.1841 13.7591 13.3568 13.5864C13.5295 13.4137 13.7637 13.3167 14.0079 13.3167C14.1376 13.302 14.2689 13.3148 14.3933 13.3544C14.5177 13.3939 14.6323 13.4593 14.7297 13.5463C14.827 13.6332 14.9049 13.7397 14.9582 13.8588C15.0115 13.9779 15.0391 14.107 15.0391 14.2375C15.0391 14.368 15.0115 14.4971 14.9582 14.6162C14.9049 14.7353 14.827 14.8418 14.7297 14.9287C14.6323 15.0157 14.5177 15.0811 14.3933 15.1206C14.2689 15.1602 14.1376 15.173 14.0079 15.1583ZM21.2802 21.2146H19.5093V18.3635C19.5093 17.6493 19.2555 17.183 18.6121 17.183C18.413 17.1844 18.2191 17.2469 18.0566 17.3619C17.894 17.477 17.7707 17.6391 17.7031 17.8264C17.6569 17.9651 17.6369 18.1112 17.6441 18.2573V21.2087H15.8732C15.8732 21.2087 15.8732 16.3802 15.8732 15.8962H17.6441V16.6458C17.8049 16.3667 18.0389 16.1367 18.3208 15.9807C18.6027 15.8247 18.9218 15.7485 19.2437 15.7604C20.4243 15.7604 21.2802 16.5219 21.2802 18.1569V21.2146Z" fill="black"/>
</svg>
