<svg width="64" height="64" viewBox="0 0 64 64" fill="none" xmlns="http://www.w3.org/2000/svg">
<g clip-path="url(#clip0_1_412)">
<path d="M1.2 60.1498H16.8C17.158 60.1498 17.5014 60.0076 17.7546 59.7544C18.0078 59.5012 18.15 59.1578 18.15 58.7998V17.9998C18.15 17.6418 18.0078 17.2984 17.7546 17.0452C17.5014 16.792 17.158 16.6498 16.8 16.6498H1.2C0.841958 16.6498 0.49858 16.792 0.245406 17.0452C-0.00776806 17.2984 -0.15 17.6418 -0.15 17.9998V58.7998C-0.15 59.1578 -0.00776803 59.5012 0.245406 59.7544C0.49858 60.0076 0.841958 60.1498 1.2 60.1498ZM15.45 19.3498V57.4498H2.55V19.3498H15.45Z" fill="black" stroke="black" stroke-width="0.3"/>
<path d="M16.7996 60.15H43.1996C43.5577 60.15 43.901 60.0078 44.1542 59.7546C44.4074 59.5014 44.5496 59.158 44.5496 58.8V7.2C44.5496 6.84196 44.4074 6.49858 44.1542 6.24541C43.901 5.99223 43.5577 5.85 43.1996 5.85H16.7996C16.4416 5.85 16.0982 5.99223 15.845 6.24541C15.5918 6.49858 15.4496 6.84196 15.4496 7.2V58.8C15.4496 59.158 15.5918 59.5014 15.845 59.7546C16.0982 60.0078 16.4416 60.15 16.7996 60.15ZM41.8496 8.55V57.45H18.1496V8.55H41.8496Z" fill="black" stroke="black" stroke-width="0.3"/>
<mask id="path-3-outside-1_1_412" maskUnits="userSpaceOnUse" x="17" y="-1" width="44" height="62" fill="black">
<rect fill="white" x="17" y="-1" width="44" height="62"/>
<path d="M58.8 60H43.2C42.8817 60 42.5765 59.8736 42.3515 59.6485C42.1264 59.4235 42 59.1183 42 58.8V21.6C42 21.3917 42.0543 21.1871 42.1574 21.0061C42.2605 20.8252 42.4089 20.6742 42.588 20.568C42.7704 20.4627 42.9774 20.4072 43.188 20.4072C43.3986 20.4072 43.6056 20.4627 43.788 20.568L59.388 28.968C59.5716 29.0712 59.7248 29.2209 59.8322 29.402C59.9397 29.5832 59.9975 29.7894 60 30V58.8C60 59.1183 59.8736 59.4235 59.6485 59.6485C59.4235 59.8736 59.1183 60 58.8 60ZM44.4 57.6H57.6V30.72L44.4 23.604V57.6ZM40.8 8.4H19.2C18.8817 8.4 18.5765 8.27357 18.3515 8.04853C18.1264 7.82348 18 7.51826 18 7.2V1.2C18 0.88174 18.1264 0.576516 18.3515 0.351472C18.5765 0.126428 18.8817 0 19.2 0H40.8C41.1183 0 41.4235 0.126428 41.6485 0.351472C41.8736 0.576516 42 0.88174 42 1.2V7.2C42 7.51826 41.8736 7.82348 41.6485 8.04853C41.4235 8.27357 41.1183 8.4 40.8 8.4ZM20.4 6H39.6V2.4H20.4V6ZM27.6 19.2H22.8C22.4817 19.2 22.1765 19.0736 21.9515 18.8485C21.7264 18.6235 21.6 18.3183 21.6 18V13.2C21.6 12.8817 21.7264 12.5765 21.9515 12.3515C22.1765 12.1264 22.4817 12 22.8 12H27.6C27.9183 12 28.2235 12.1264 28.4485 12.3515C28.6736 12.5765 28.8 12.8817 28.8 13.2V18C28.8 18.3183 28.6736 18.6235 28.4485 18.8485C28.2235 19.0736 27.9183 19.2 27.6 19.2ZM24 16.8H26.4V14.4H24V16.8ZM37.2 19.2H32.4C32.0817 19.2 31.7765 19.0736 31.5515 18.8485C31.3264 18.6235 31.2 18.3183 31.2 18V13.2C31.2 12.8817 31.3264 12.5765 31.5515 12.3515C31.7765 12.1264 32.0817 12 32.4 12H37.2C37.5183 12 37.8235 12.1264 38.0485 12.3515C38.2736 12.5765 38.4 12.8817 38.4 13.2V18C38.4 18.3183 38.2736 18.6235 38.0485 18.8485C37.8235 19.0736 37.5183 19.2 37.2 19.2ZM33.6 16.8H36V14.4H33.6V16.8ZM27.6 30H22.8C22.4817 30 22.1765 29.8736 21.9515 29.6485C21.7264 29.4235 21.6 29.1183 21.6 28.8V24C21.6 23.6817 21.7264 23.3765 21.9515 23.1515C22.1765 22.9264 22.4817 22.8 22.8 22.8H27.6C27.9183 22.8 28.2235 22.9264 28.4485 23.1515C28.6736 23.3765 28.8 23.6817 28.8 24V28.8C28.8 29.1183 28.6736 29.4235 28.4485 29.6485C28.2235 29.8736 27.9183 30 27.6 30ZM24 27.6H26.4V25.2H24V27.6ZM37.2 30H32.4C32.0817 30 31.7765 29.8736 31.5515 29.6485C31.3264 29.4235 31.2 29.1183 31.2 28.8V24C31.2 23.6817 31.3264 23.3765 31.5515 23.1515C31.7765 22.9264 32.0817 22.8 32.4 22.8H37.2C37.5183 22.8 37.8235 22.9264 38.0485 23.1515C38.2736 23.3765 38.4 23.6817 38.4 24V28.8C38.4 29.1183 38.2736 29.4235 38.0485 29.6485C37.8235 29.8736 37.5183 30 37.2 30ZM33.6 27.6H36V25.2H33.6V27.6ZM27.6 40.8H22.8C22.4817 40.8 22.1765 40.6736 21.9515 40.4485C21.7264 40.2235 21.6 39.9183 21.6 39.6V34.8C21.6 34.4817 21.7264 34.1765 21.9515 33.9515C22.1765 33.7264 22.4817 33.6 22.8 33.6H27.6C27.9183 33.6 28.2235 33.7264 28.4485 33.9515C28.6736 34.1765 28.8 34.4817 28.8 34.8V39.6C28.8 39.9183 28.6736 40.2235 28.4485 40.4485C28.2235 40.6736 27.9183 40.8 27.6 40.8ZM24 38.4H26.4V36H24V38.4ZM37.2 40.8H32.4C32.0817 40.8 31.7765 40.6736 31.5515 40.4485C31.3264 40.2235 31.2 39.9183 31.2 39.6V34.8C31.2 34.4817 31.3264 34.1765 31.5515 33.9515C31.7765 33.7264 32.0817 33.6 32.4 33.6H37.2C37.5183 33.6 37.8235 33.7264 38.0485 33.9515C38.2736 34.1765 38.4 34.4817 38.4 34.8V39.6C38.4 39.9183 38.2736 40.2235 38.0485 40.4485C37.8235 40.6736 37.5183 40.8 37.2 40.8ZM33.6 38.4H36V36H33.6V38.4Z"/>
</mask>
<path d="M58.8 60H43.2C42.8817 60 42.5765 59.8736 42.3515 59.6485C42.1264 59.4235 42 59.1183 42 58.8V21.6C42 21.3917 42.0543 21.1871 42.1574 21.0061C42.2605 20.8252 42.4089 20.6742 42.588 20.568C42.7704 20.4627 42.9774 20.4072 43.188 20.4072C43.3986 20.4072 43.6056 20.4627 43.788 20.568L59.388 28.968C59.5716 29.0712 59.7248 29.2209 59.8322 29.402C59.9397 29.5832 59.9975 29.7894 60 30V58.8C60 59.1183 59.8736 59.4235 59.6485 59.6485C59.4235 59.8736 59.1183 60 58.8 60ZM44.4 57.6H57.6V30.72L44.4 23.604V57.6ZM40.8 8.4H19.2C18.8817 8.4 18.5765 8.27357 18.3515 8.04853C18.1264 7.82348 18 7.51826 18 7.2V1.2C18 0.88174 18.1264 0.576516 18.3515 0.351472C18.5765 0.126428 18.8817 0 19.2 0H40.8C41.1183 0 41.4235 0.126428 41.6485 0.351472C41.8736 0.576516 42 0.88174 42 1.2V7.2C42 7.51826 41.8736 7.82348 41.6485 8.04853C41.4235 8.27357 41.1183 8.4 40.8 8.4ZM20.4 6H39.6V2.4H20.4V6ZM27.6 19.2H22.8C22.4817 19.2 22.1765 19.0736 21.9515 18.8485C21.7264 18.6235 21.6 18.3183 21.6 18V13.2C21.6 12.8817 21.7264 12.5765 21.9515 12.3515C22.1765 12.1264 22.4817 12 22.8 12H27.6C27.9183 12 28.2235 12.1264 28.4485 12.3515C28.6736 12.5765 28.8 12.8817 28.8 13.2V18C28.8 18.3183 28.6736 18.6235 28.4485 18.8485C28.2235 19.0736 27.9183 19.2 27.6 19.2ZM24 16.8H26.4V14.4H24V16.8ZM37.2 19.2H32.4C32.0817 19.2 31.7765 19.0736 31.5515 18.8485C31.3264 18.6235 31.2 18.3183 31.2 18V13.2C31.2 12.8817 31.3264 12.5765 31.5515 12.3515C31.7765 12.1264 32.0817 12 32.4 12H37.2C37.5183 12 37.8235 12.1264 38.0485 12.3515C38.2736 12.5765 38.4 12.8817 38.4 13.2V18C38.4 18.3183 38.2736 18.6235 38.0485 18.8485C37.8235 19.0736 37.5183 19.2 37.2 19.2ZM33.6 16.8H36V14.4H33.6V16.8ZM27.6 30H22.8C22.4817 30 22.1765 29.8736 21.9515 29.6485C21.7264 29.4235 21.6 29.1183 21.6 28.8V24C21.6 23.6817 21.7264 23.3765 21.9515 23.1515C22.1765 22.9264 22.4817 22.8 22.8 22.8H27.6C27.9183 22.8 28.2235 22.9264 28.4485 23.1515C28.6736 23.3765 28.8 23.6817 28.8 24V28.8C28.8 29.1183 28.6736 29.4235 28.4485 29.6485C28.2235 29.8736 27.9183 30 27.6 30ZM24 27.6H26.4V25.2H24V27.6ZM37.2 30H32.4C32.0817 30 31.7765 29.8736 31.5515 29.6485C31.3264 29.4235 31.2 29.1183 31.2 28.8V24C31.2 23.6817 31.3264 23.3765 31.5515 23.1515C31.7765 22.9264 32.0817 22.8 32.4 22.8H37.2C37.5183 22.8 37.8235 22.9264 38.0485 23.1515C38.2736 23.3765 38.4 23.6817 38.4 24V28.8C38.4 29.1183 38.2736 29.4235 38.0485 29.6485C37.8235 29.8736 37.5183 30 37.2 30ZM33.6 27.6H36V25.2H33.6V27.6ZM27.6 40.8H22.8C22.4817 40.8 22.1765 40.6736 21.9515 40.4485C21.7264 40.2235 21.6 39.9183 21.6 39.6V34.8C21.6 34.4817 21.7264 34.1765 21.9515 33.9515C22.1765 33.7264 22.4817 33.6 22.8 33.6H27.6C27.9183 33.6 28.2235 33.7264 28.4485 33.9515C28.6736 34.1765 28.8 34.4817 28.8 34.8V39.6C28.8 39.9183 28.6736 40.2235 28.4485 40.4485C28.2235 40.6736 27.9183 40.8 27.6 40.8ZM24 38.4H26.4V36H24V38.4ZM37.2 40.8H32.4C32.0817 40.8 31.7765 40.6736 31.5515 40.4485C31.3264 40.2235 31.2 39.9183 31.2 39.6V34.8C31.2 34.4817 31.3264 34.1765 31.5515 33.9515C31.7765 33.7264 32.0817 33.6 32.4 33.6H37.2C37.5183 33.6 37.8235 33.7264 38.0485 33.9515C38.2736 34.1765 38.4 34.4817 38.4 34.8V39.6C38.4 39.9183 38.2736 40.2235 38.0485 40.4485C37.8235 40.6736 37.5183 40.8 37.2 40.8ZM33.6 38.4H36V36H33.6V38.4Z" fill="black"/>
<path d="M58.8 60H43.2C42.8817 60 42.5765 59.8736 42.3515 59.6485C42.1264 59.4235 42 59.1183 42 58.8V21.6C42 21.3917 42.0543 21.1871 42.1574 21.0061C42.2605 20.8252 42.4089 20.6742 42.588 20.568C42.7704 20.4627 42.9774 20.4072 43.188 20.4072C43.3986 20.4072 43.6056 20.4627 43.788 20.568L59.388 28.968C59.5716 29.0712 59.7248 29.2209 59.8322 29.402C59.9397 29.5832 59.9975 29.7894 60 30V58.8C60 59.1183 59.8736 59.4235 59.6485 59.6485C59.4235 59.8736 59.1183 60 58.8 60ZM44.4 57.6H57.6V30.72L44.4 23.604V57.6ZM40.8 8.4H19.2C18.8817 8.4 18.5765 8.27357 18.3515 8.04853C18.1264 7.82348 18 7.51826 18 7.2V1.2C18 0.88174 18.1264 0.576516 18.3515 0.351472C18.5765 0.126428 18.8817 0 19.2 0H40.8C41.1183 0 41.4235 0.126428 41.6485 0.351472C41.8736 0.576516 42 0.88174 42 1.2V7.2C42 7.51826 41.8736 7.82348 41.6485 8.04853C41.4235 8.27357 41.1183 8.4 40.8 8.4ZM20.4 6H39.6V2.4H20.4V6ZM27.6 19.2H22.8C22.4817 19.2 22.1765 19.0736 21.9515 18.8485C21.7264 18.6235 21.6 18.3183 21.6 18V13.2C21.6 12.8817 21.7264 12.5765 21.9515 12.3515C22.1765 12.1264 22.4817 12 22.8 12H27.6C27.9183 12 28.2235 12.1264 28.4485 12.3515C28.6736 12.5765 28.8 12.8817 28.8 13.2V18C28.8 18.3183 28.6736 18.6235 28.4485 18.8485C28.2235 19.0736 27.9183 19.2 27.6 19.2ZM24 16.8H26.4V14.4H24V16.8ZM37.2 19.2H32.4C32.0817 19.2 31.7765 19.0736 31.5515 18.8485C31.3264 18.6235 31.2 18.3183 31.2 18V13.2C31.2 12.8817 31.3264 12.5765 31.5515 12.3515C31.7765 12.1264 32.0817 12 32.4 12H37.2C37.5183 12 37.8235 12.1264 38.0485 12.3515C38.2736 12.5765 38.4 12.8817 38.4 13.2V18C38.4 18.3183 38.2736 18.6235 38.0485 18.8485C37.8235 19.0736 37.5183 19.2 37.2 19.2ZM33.6 16.8H36V14.4H33.6V16.8ZM27.6 30H22.8C22.4817 30 22.1765 29.8736 21.9515 29.6485C21.7264 29.4235 21.6 29.1183 21.6 28.8V24C21.6 23.6817 21.7264 23.3765 21.9515 23.1515C22.1765 22.9264 22.4817 22.8 22.8 22.8H27.6C27.9183 22.8 28.2235 22.9264 28.4485 23.1515C28.6736 23.3765 28.8 23.6817 28.8 24V28.8C28.8 29.1183 28.6736 29.4235 28.4485 29.6485C28.2235 29.8736 27.9183 30 27.6 30ZM24 27.6H26.4V25.2H24V27.6ZM37.2 30H32.4C32.0817 30 31.7765 29.8736 31.5515 29.6485C31.3264 29.4235 31.2 29.1183 31.2 28.8V24C31.2 23.6817 31.3264 23.3765 31.5515 23.1515C31.7765 22.9264 32.0817 22.8 32.4 22.8H37.2C37.5183 22.8 37.8235 22.9264 38.0485 23.1515C38.2736 23.3765 38.4 23.6817 38.4 24V28.8C38.4 29.1183 38.2736 29.4235 38.0485 29.6485C37.8235 29.8736 37.5183 30 37.2 30ZM33.6 27.6H36V25.2H33.6V27.6ZM27.6 40.8H22.8C22.4817 40.8 22.1765 40.6736 21.9515 40.4485C21.7264 40.2235 21.6 39.9183 21.6 39.6V34.8C21.6 34.4817 21.7264 34.1765 21.9515 33.9515C22.1765 33.7264 22.4817 33.6 22.8 33.6H27.6C27.9183 33.6 28.2235 33.7264 28.4485 33.9515C28.6736 34.1765 28.8 34.4817 28.8 34.8V39.6C28.8 39.9183 28.6736 40.2235 28.4485 40.4485C28.2235 40.6736 27.9183 40.8 27.6 40.8ZM24 38.4H26.4V36H24V38.4ZM37.2 40.8H32.4C32.0817 40.8 31.7765 40.6736 31.5515 40.4485C31.3264 40.2235 31.2 39.9183 31.2 39.6V34.8C31.2 34.4817 31.3264 34.1765 31.5515 33.9515C31.7765 33.7264 32.0817 33.6 32.4 33.6H37.2C37.5183 33.6 37.8235 33.7264 38.0485 33.9515C38.2736 34.1765 38.4 34.4817 38.4 34.8V39.6C38.4 39.9183 38.2736 40.2235 38.0485 40.4485C37.8235 40.6736 37.5183 40.8 37.2 40.8ZM33.6 38.4H36V36H33.6V38.4Z" stroke="black" stroke-width="0.6" mask="url(#path-3-outside-1_1_412)"/>
<path d="M48.0008 40.9498H52.8008C53.1588 40.9498 53.5022 40.8076 53.7554 40.5544C54.0086 40.3012 54.1508 39.9578 54.1508 39.5998V34.7998C54.1508 34.4418 54.0086 34.0984 53.7554 33.8452C53.5022 33.592 53.1588 33.4498 52.8008 33.4498H48.0008C47.6427 33.4498 47.2994 33.592 47.0462 33.8452C46.793 34.0984 46.6508 34.4418 46.6508 34.7998V39.5998C46.6508 39.9578 46.793 40.3012 47.0462 40.5544C47.2994 40.8076 47.6427 40.9498 48.0008 40.9498ZM51.4508 36.1498V38.2498H49.3508V36.1498H51.4508ZM48.0008 51.7498H52.8008C53.1588 51.7498 53.5022 51.6076 53.7554 51.3544C54.0086 51.1012 54.1508 50.7578 54.1508 50.3998V45.5998C54.1508 45.2418 54.0086 44.8984 53.7554 44.6452C53.5022 44.392 53.1588 44.2498 52.8008 44.2498H48.0008C47.6427 44.2498 47.2994 44.392 47.0462 44.6452C46.793 44.8984 46.6508 45.2418 46.6508 45.5998V50.3998C46.6508 50.7578 46.793 51.1012 47.0462 51.3544C47.2994 51.6076 47.6427 51.7498 48.0008 51.7498ZM51.4508 46.9498V49.0498H49.3508V46.9498H51.4508ZM6.00078 30.1498H16.8008C17.1588 30.1498 17.5022 30.0076 17.7554 29.7544C18.0086 29.5012 18.1508 29.1578 18.1508 28.7998V23.9998C18.1508 23.6418 18.0086 23.2984 17.7554 23.0452C17.5022 22.792 17.1588 22.6498 16.8008 22.6498H6.00078C5.64274 22.6498 5.29936 22.792 5.04619 23.0452C4.79301 23.2984 4.65078 23.6418 4.65078 23.9998V28.7998C4.65078 29.1578 4.79301 29.5012 5.04619 29.7544C5.29936 30.0076 5.64274 30.1498 6.00078 30.1498ZM15.4508 25.3498V27.4498H7.35078V25.3498H15.4508ZM6.00078 40.9498H16.8008C17.1588 40.9498 17.5022 40.8076 17.7554 40.5544C18.0086 40.3012 18.1508 39.9578 18.1508 39.5998V34.7998C18.1508 34.4418 18.0086 34.0984 17.7554 33.8452C17.5022 33.592 17.1588 33.4498 16.8008 33.4498H6.00078C5.64274 33.4498 5.29936 33.592 5.04619 33.8452C4.79301 34.0984 4.65078 34.4418 4.65078 34.7998V39.5998C4.65078 39.9578 4.79301 40.3012 5.04619 40.5544C5.29936 40.8076 5.64274 40.9498 6.00078 40.9498ZM15.4508 36.1498V38.2498H7.35078V36.1498H15.4508ZM6.00078 51.7498H16.8008C17.1588 51.7498 17.5022 51.6076 17.7554 51.3544C18.0086 51.1012 18.1508 50.7578 18.1508 50.3998V45.5998C18.1508 45.2418 18.0086 44.8984 17.7554 44.6452C17.5022 44.392 17.1588 44.2498 16.8008 44.2498H6.00078C5.64274 44.2498 5.29936 44.392 5.04619 44.6452C4.79301 44.8984 4.65078 45.2418 4.65078 45.5998V50.3998C4.65078 50.7578 4.79301 51.1012 5.04619 51.3544C5.29936 51.6076 5.64274 51.7498 6.00078 51.7498ZM15.4508 46.9498V49.0498H7.35078V46.9498H15.4508ZM22.8008 60.1498H37.2008C37.5588 60.1498 37.9022 60.0076 38.1554 59.7544C38.4086 59.5012 38.5508 59.1578 38.5508 58.7998V45.5998C38.5508 45.2418 38.4086 44.8984 38.1554 44.6452C37.9022 44.392 37.5588 44.2498 37.2008 44.2498H22.8008C22.4427 44.2498 22.0994 44.392 21.8462 44.6452C21.593 44.8984 21.4508 45.2418 21.4508 45.5998V58.7998C21.4508 59.1578 21.593 59.5012 21.8462 59.7544C22.0994 60.0076 22.4427 60.1498 22.8008 60.1498ZM35.8508 46.9498V57.4498H24.1508V46.9498H35.8508Z" fill="black" stroke="black" stroke-width="0.3"/>
</g>
<defs>
<clipPath id="clip0_1_412">
<rect width="64" height="64" fill="white"/>
</clipPath>
</defs>
</svg>
