<svg width="72" height="72" viewBox="0 0 72 72" fill="none" xmlns="http://www.w3.org/2000/svg">
<path d="M63.8299 65.0396H8.33877C7.86717 65.0396 7.45605 64.7739 7.25085 64.3499C7.04421 63.938 7.10541 63.4304 7.39485 63.0675L40.9368 21.5034C41.3364 21.0073 42.1341 20.9231 42.6432 21.3227C42.8844 21.5286 43.0413 21.8065 43.078 22.1334C43.1148 22.4595 43.0298 22.7742 42.8246 23.0291L10.8674 62.6197H63.8299C63.8414 62.6197 63.8414 62.6197 63.8536 62.6197C64.5074 62.6319 65.0402 63.1763 65.0402 63.83C65.0395 64.4953 64.4952 65.0396 63.8299 65.0396ZM63.8299 20.27H50.0354C49.3586 20.27 48.8251 19.725 48.8251 19.0597C48.8251 18.3944 49.3579 17.8501 50.0354 17.8501H63.8299C64.4952 17.8501 65.0402 18.3944 65.0402 19.0597C65.0402 19.725 64.4952 20.27 63.8299 20.27ZM45.1833 20.27C44.518 20.27 43.973 19.725 43.973 19.0597C43.973 18.3944 44.518 17.8501 45.1833 17.8501C45.8608 17.8501 46.3929 18.3944 46.3929 19.0597C46.3929 19.725 45.8608 20.27 45.1833 20.27Z" fill="black"/>
<path d="M63.8302 34.7895H33.5802C32.912 34.7895 32.3706 34.2488 32.3706 33.5799C32.3706 32.9111 32.912 32.3696 33.5802 32.3696H63.8302C64.4991 32.3696 65.0406 32.9111 65.0406 33.5799C65.0398 34.2488 64.4991 34.7895 63.8302 34.7895ZM63.8302 44.4699H26.3204C25.6515 44.4699 25.1108 43.9285 25.1108 43.2596C25.1108 42.5907 25.6515 42.05 26.3204 42.05H63.8302C64.4991 42.05 65.0406 42.5907 65.0406 43.2596C65.0398 43.9285 64.4991 44.4699 63.8302 44.4699ZM63.8302 55.3599H16.64C15.9711 55.3599 15.4297 54.8185 15.4297 54.1496C15.4297 53.4807 15.9711 52.94 16.64 52.94H63.8295C64.4984 52.94 65.0398 53.4807 65.0398 54.1496C65.0398 54.8185 64.4991 55.3599 63.8302 55.3599Z" fill="black"/>
<path d="M63.8294 26.3198H39.6295C38.9606 26.3198 38.4199 25.7791 38.4199 25.1102C38.4199 24.4413 38.9606 23.8999 39.6295 23.8999H63.8294C64.4983 23.8999 65.0398 24.4413 65.0398 25.1102C65.0398 25.7791 64.4983 26.3198 63.8294 26.3198Z" fill="black"/>
<path d="M44.4687 38.4198C44.221 38.4198 43.9705 38.3442 43.7537 38.1858C43.2152 37.7905 43.0993 37.0323 43.4938 36.4938L56.8037 18.344C57.199 17.8062 57.9543 17.6881 58.4958 18.0841C59.035 18.4801 59.1502 19.2375 58.7557 19.7761L45.4457 37.9258C45.2081 38.2484 44.8409 38.4198 44.4687 38.4198Z" fill="black"/>
<path d="M49.3102 49.3097C49.0006 49.3097 48.691 49.1917 48.4548 48.9555L47.2452 47.7452C46.7952 47.2952 46.77 46.5716 47.1898 46.0935L54.8009 37.3952L51.0058 34.5476C50.4701 34.1473 50.3614 33.3884 50.7631 32.8541C51.1634 32.3185 51.9223 32.2112 52.4566 32.6115L57.2964 36.2417C57.5657 36.4433 57.7392 36.7486 57.7738 37.0827C57.809 37.4182 57.7025 37.753 57.4822 38.0057L49.7566 46.8337L50.1662 47.2433C50.6393 47.7164 50.6393 48.4817 50.1662 48.9548C49.9294 49.1917 49.6198 49.3097 49.3102 49.3097Z" fill="black"/>
<path d="M37.2092 60.2C36.9666 60.2 36.7239 60.128 36.5108 59.9775C35.9657 59.5909 35.8361 58.8356 36.2228 58.2898L39.6507 53.45C40.0388 52.9042 40.7919 52.7775 41.3384 53.162C41.8834 53.5479 42.013 54.3032 41.6264 54.8497L38.1985 59.6895C37.9616 60.0229 37.5886 60.2 37.2092 60.2Z" fill="black"/>
<path d="M42.0492 60.2C41.754 60.2 41.4574 60.0927 41.2234 59.8753L38.4406 57.2782C37.9524 56.8217 37.9265 56.0564 38.3815 55.5675C38.8387 55.0808 39.6034 55.0534 40.093 55.5085L42.8758 58.1055C43.3639 58.562 43.3899 59.3273 42.9348 59.8169C42.6958 60.0711 42.3732 60.2 42.0492 60.2Z" fill="black"/>
<path d="M20.8757 34.7899C13.2033 34.7899 6.96094 28.5475 6.96094 20.8752C6.96094 13.2028 13.2033 6.96045 20.8757 6.96045C28.548 6.96045 34.7904 13.2028 34.7904 20.8752C34.7904 28.5475 28.548 34.7899 20.8757 34.7899ZM20.8757 9.38037C14.5375 9.38037 9.38086 14.537 9.38086 20.8752C9.38086 27.2133 14.5375 32.37 20.8757 32.37C27.2138 32.37 32.3705 27.2133 32.3705 20.8752C32.3705 14.537 27.2138 9.38037 20.8757 9.38037Z" fill="black"/>
<path d="M21.1328 27.0622L26.3838 32.3132C27.6387 31.7091 28.8195 30.8998 29.8599 29.8594C30.9227 28.7967 31.7435 27.5878 32.3511 26.3026L27.1218 21.0732L21.1328 27.0622Z" fill="black"/>
<path d="M26.3817 33.5232C26.0678 33.5232 25.7582 33.4015 25.5264 33.1683L20.2761 27.9173C19.8038 27.4443 19.8038 26.6789 20.2761 26.2059L26.2651 20.2162C26.7187 19.7626 27.5222 19.7626 27.9765 20.2162L33.2066 25.4463C33.568 25.8077 33.6638 26.3578 33.4449 26.8193C32.7501 28.2867 31.8321 29.5971 30.7154 30.7138C29.621 31.8082 28.3408 32.7132 26.9073 33.403C26.7396 33.4843 26.5603 33.5232 26.3817 33.5232ZM22.8422 27.0619L26.6071 30.8283C27.4934 30.3214 28.2969 29.7101 29.004 29.0038C29.7304 28.2773 30.3554 27.4486 30.8695 26.5342L27.1204 22.7837L22.8422 27.0619Z" fill="black"/>
<path d="M18.3166 13.7649L22.872 18.3203L21.9879 21.9275L18.2626 22.6943L13.8252 18.2569C12.8878 20.8576 13.2586 23.6793 15.3228 25.7435C18.1827 28.6033 22.9102 28.6379 25.8039 25.7435C28.6983 22.8491 28.663 18.1223 25.8039 15.2625C23.7389 13.1975 20.9172 12.8274 18.3166 13.7649Z" fill="#FFDD99"/>
<path d="M20.5606 29.1204C18.3524 29.1204 16.1449 28.2802 14.4644 26.599C12.1935 24.3266 11.5283 21.0542 12.6846 17.8466C12.8243 17.4564 13.1547 17.1662 13.5594 17.0762C13.9633 16.9826 14.3852 17.1086 14.6783 17.401L18.6555 21.3782L20.9934 20.8973L21.5334 18.6934L17.4603 14.6203C17.1673 14.3273 17.0442 13.9054 17.1349 13.5014C17.2249 13.0968 17.5158 12.7678 17.9053 12.6266C21.1172 11.4696 24.3874 12.1363 26.6569 14.4065C28.2718 16.0207 29.1639 18.1807 29.169 20.4876C29.1747 22.8031 28.2826 24.9746 26.6569 26.599C24.9764 28.2794 22.7682 29.1189 20.5606 29.1204ZM14.5486 20.6928C14.4802 22.2797 15.0354 23.747 16.1758 24.8875C18.5936 27.3053 22.5284 27.3053 24.9462 24.8875C26.1133 23.7211 26.7541 22.1602 26.7491 20.4934C26.7455 18.8309 26.1054 17.2764 24.9462 16.1172C23.8071 14.9774 22.3534 14.4346 20.7529 14.49L23.7265 17.4643C24.0253 17.7631 24.1477 18.1966 24.0469 18.6077L23.162 22.2149C23.0497 22.6685 22.6882 23.017 22.231 23.112L18.5065 23.8788C18.1083 23.9602 17.6943 23.837 17.4063 23.549L14.5486 20.6928Z" fill="black"/>
</svg>
