<svg width="16" height="16" viewBox="0 0 16 16" fill="none" xmlns="http://www.w3.org/2000/svg">
<path d="M14.6673 7.73313C14.734 7.3998 14.4673 6.9998 14.134 6.9998L10.334 6.46646L8.60065 2.9998C8.53398 2.86646 8.46732 2.7998 8.33398 2.73313C8.00065 2.53313 7.60065 2.66646 7.40065 2.9998L5.73398 6.46646L1.93398 6.9998C1.73398 6.9998 1.60065 7.06646 1.53398 7.1998C1.26732 7.46646 1.26732 7.86646 1.53398 8.13313L4.26732 10.7998L3.60065 14.5998C3.60065 14.7331 3.60065 14.8665 3.66732 14.9998C3.86732 15.3331 4.26732 15.4665 4.60065 15.2665L8.00065 13.4665L11.4007 15.2665C11.4673 15.3331 11.6007 15.3331 11.734 15.3331C11.8007 15.3331 11.8006 15.3331 11.8673 15.3331C12.2007 15.2665 12.4673 14.9331 12.4007 14.5331L11.734 10.7331L14.4673 8.06646C14.6007 7.9998 14.6673 7.86646 14.6673 7.73313Z" fill="#FFAA00"/>
</svg>
