<svg width="64" height="64" viewBox="0 0 64 64" fill="none" xmlns="http://www.w3.org/2000/svg">
<path d="M29.4164 21.9696L29.6057 21.3281H28.9369H22.7395C21.0623 21.3281 19.7349 20.0265 19.7349 18.4721V6.35599C19.7349 4.8016 21.0623 3.5 22.7395 3.5H40.2494C41.8919 3.5 43.1852 4.74701 43.2284 6.24701L43.2476 6.91277L43.8815 6.70852L51.5 4.25396V20.5865L43.8815 18.1319L43.2523 17.9292L43.2285 18.5898C43.1744 20.0935 41.8782 21.3404 40.2365 21.3404H34.0391H33.3702L33.5595 21.982L44.4201 58.7833C44.4203 58.7839 44.4204 58.7845 44.4206 58.785C44.6223 59.491 44.2035 60.2416 43.4334 60.4444L43.4334 60.4443L43.4264 60.4463C42.6633 60.659 41.8725 60.2198 41.6563 59.5021C41.6562 59.5017 41.6561 59.5013 41.656 59.5009L33.9002 33.1982L32.9207 33.3397V59.1389C32.9207 59.8666 32.3019 60.4896 31.488 60.4896C30.6741 60.4896 30.0553 59.8666 30.0553 59.1389V33.3397L29.0757 33.1982L21.3193 59.5033L21.318 59.5078C21.1538 60.0842 20.5825 60.4896 19.9435 60.4896C19.8126 60.4896 19.6895 60.4722 19.5472 60.4333L19.5426 60.432C18.7657 60.2274 18.3449 59.4738 18.5542 58.7768L18.5548 58.7745L29.4164 21.9696ZM39.8886 18.6266H40.3886V18.1266V6.70146V6.20146H39.8886H23.1002H22.6002V6.70146V18.1266V18.6266H23.1002H39.8886ZM43.6003 9.65568L43.254 9.76753V10.1315V14.6843V15.0482L43.6003 15.1601L47.9939 16.579L48.6476 16.7901V16.1032V8.71259V8.02569L47.9939 8.23679L43.6003 9.65568Z" fill="black" stroke="black"/>
</svg>
