<svg width="21" height="17" viewBox="0 0 21 17" fill="none" xmlns="http://www.w3.org/2000/svg">
<path d="M20.7914 2.52339C20.0448 2.84726 19.2553 3.06136 18.4475 3.15903C19.2998 2.64984 19.9385 1.8488 20.2451 0.904504C19.4442 1.38129 18.5674 1.71722 17.6529 1.89769C17.0417 1.23481 16.2277 0.793562 15.3386 0.64315C14.4496 0.492738 13.5357 0.641667 12.7404 1.06658C11.9451 1.4915 11.3134 2.16836 10.9442 2.99102C10.5751 3.81367 10.4894 4.73559 10.7006 5.61219C9.08119 5.53027 7.49708 5.1086 6.05122 4.37454C4.60536 3.64049 3.33009 2.61049 2.30826 1.35144C1.94986 1.97731 1.76153 2.6861 1.76201 3.40732C1.76074 4.07711 1.9251 4.73681 2.24048 5.3277C2.55585 5.9186 3.01244 6.42234 3.5696 6.79407C2.92202 6.77645 2.28828 6.60269 1.72228 6.28755V6.33721C1.72713 7.27566 2.05598 8.18363 2.6532 8.90753C3.25042 9.63143 4.07935 10.1268 4.99978 10.3099C4.64547 10.4178 4.27761 10.4746 3.90728 10.4788C3.65093 10.4758 3.39522 10.4525 3.14253 10.4093C3.40464 11.2165 3.91187 11.922 4.59364 12.4276C5.27541 12.9331 6.09782 13.2136 6.94642 13.2299C5.51346 14.3574 3.74428 14.9728 1.92092 14.9779C1.58893 14.979 1.25721 14.9591 0.927734 14.9183C2.78938 16.1203 4.95887 16.7584 7.17485 16.7557C8.70404 16.7716 10.2211 16.4826 11.6373 15.9056C13.0536 15.3286 14.3407 14.4752 15.4234 13.3953C16.5062 12.3153 17.3629 11.0304 17.9435 9.61561C18.5241 8.20084 18.817 6.68455 18.805 5.15532C18.805 4.98648 18.805 4.80771 18.805 4.62894C19.5844 4.04774 20.2565 3.33524 20.7914 2.52339Z" fill="black"/>
</svg>
