<svg width="35" height="34" viewBox="0 0 35 34" fill="none" xmlns="http://www.w3.org/2000/svg">
<circle cx="17.666" cy="17" r="17" fill="#F0F0F0"/>
<path d="M25.0631 12.7917C24.5011 13.0355 23.9067 13.1967 23.2985 13.2702C23.9402 12.8869 24.421 12.2838 24.6519 11.573C24.0489 11.9319 23.3888 12.1848 22.7004 12.3206C22.2402 11.8216 21.6274 11.4894 20.9581 11.3762C20.2888 11.263 19.6009 11.3751 19.0022 11.695C18.4035 12.0149 17.9279 12.5244 17.65 13.1437C17.3721 13.763 17.3076 14.4571 17.4666 15.117C16.2474 15.0553 15.0549 14.7379 13.9664 14.1853C12.878 13.6327 11.9179 12.8573 11.1487 11.9094C10.8788 12.3806 10.7371 12.9142 10.7374 13.4571C10.7365 13.9614 10.8602 14.458 11.0976 14.9028C11.3351 15.3477 11.6788 15.7269 12.0982 16.0067C11.6107 15.9935 11.1336 15.8627 10.7075 15.6254V15.6628C10.7112 16.3693 10.9587 17.0528 11.4083 17.5978C11.8579 18.1427 12.482 18.5157 13.1749 18.6535C12.9082 18.7347 12.6312 18.7775 12.3524 18.7806C12.1594 18.7784 11.9669 18.7609 11.7767 18.7283C11.974 19.336 12.3559 19.8671 12.8691 20.2477C13.3824 20.6283 14.0015 20.8394 14.6403 20.8517C13.5616 21.7006 12.2297 22.1638 10.8571 22.1677C10.6071 22.1685 10.3574 22.1535 10.1094 22.1228C11.5109 23.0277 13.1441 23.508 14.8123 23.506C15.9635 23.518 17.1056 23.3004 18.1718 22.8661C19.2379 22.4317 20.2069 21.7892 21.022 20.9762C21.8371 20.1632 22.482 19.1959 22.9191 18.1308C23.3562 17.0658 23.5767 15.9243 23.5677 14.7731C23.5677 14.6459 23.5677 14.5114 23.5677 14.3768C24.1544 13.9392 24.6604 13.4029 25.0631 12.7917Z" fill="black"/>
</svg>
