<svg width="18" height="13" viewBox="0 0 18 13" fill="none" xmlns="http://www.w3.org/2000/svg">
<path d="M17.9405 4.88707C17.9793 3.76477 17.7338 2.65086 17.227 1.64878C16.8831 1.2376 16.4058 0.960118 15.8783 0.864686C13.6966 0.666723 11.5059 0.585584 9.31551 0.621618C7.1331 0.583949 4.95024 0.662469 2.77619 0.856845C2.34636 0.935032 1.94859 1.13664 1.63142 1.43707C0.925734 2.08787 0.847324 3.20128 0.768915 4.14219C0.655153 5.83391 0.655153 7.53137 0.768915 9.22309C0.791599 9.75268 0.87045 10.2783 1.00414 10.7913C1.09868 11.1873 1.28996 11.5537 1.56085 11.8576C1.88018 12.174 2.28722 12.3871 2.72914 12.4692C4.41958 12.6779 6.12286 12.7644 7.82573 12.728C10.5701 12.7672 12.9772 12.728 15.8235 12.5084C16.2762 12.4313 16.6947 12.218 17.0231 11.8968C17.2426 11.6772 17.4066 11.4084 17.5014 11.1128C17.7818 10.2523 17.9196 9.35177 17.9091 8.44685C17.9405 8.00775 17.9405 5.35753 17.9405 4.88707ZM7.54346 8.9173V4.06378L12.1853 6.5023C10.8837 7.22366 9.16653 8.03912 7.54346 8.9173Z" fill="black"/>
</svg>
